# File generated by ImageToStl.com - Free Image and 3D model conversion tools

o obj1
v 1.04999998 1.48499997 0.05
v 1.04999998 -1.48499997 0.05
v 1.04999998 1.48499997 -0.05
v -1.04999998 1.48499997 0.05
v -0.42398601 -1.10076269 0.05
v -0.49999999 -1.02474874 0.05
v -0.57601397 -1.10076269 0.05
v -0.58845019 -1.08832647 0.05
v -0.6007627 -1.07601392 0.05
v -1.04999998 -1.48499997 0.05
v -0.37499999 -1.09499998 0.05
v -0.37499999 -1.02749998 0.05
v -0.37499999 -0.94499998 0.05
v -0.29249999 -0.94499998 0.05
v 0.82499998 -0.065 0.05
v 0.82499998 0.0025 0.05
v 0.82499998 0.085 0.05
v 0.97499998 -0.065 0.05
v 0.89249998 -0.065 0.05
v -0.22499999 -0.94499998 0.05
v -0.30749999 -1.09499998 0.05
v 0.03524614 -1.09076383 0.05
v -0.17524614 -1.09076383 0.05
v 0.1425 -1.09499998 0.05
v 0.075 -1.09499998 0.05
v 0.29923728 -1.07601392 0.05
v 0.37525127 -0.99999998 0.05
v 0.29923728 -0.92398603 0.05
v 0.3116735 -0.91154974 0.05
v 0.32398601 -0.89923727 0.05
v 0.39999999 -0.97525121 0.05
v 0.47601394 -0.89923727 0.05
v 0.48845023 -0.91167349 0.05
v 0.5007627 -0.92398603 0.05
v 0.42474875 -0.99999998 0.05
v 0.5007627 -1.07601392 0.05
v 0.47601394 -1.10076269 0.05
v 0.39999999 -1.02474874 0.05
v 0.32398601 -1.10076269 0.05
v 0.31154979 -1.08832647 0.05
v 0.75524611 -1.09076383 0.05
v 0.54475386 -1.09076383 0.05
v 0.40575606 0.57385504 0.05
v 0.69475386 0.90923612 0.05
v 0.79999998 1.09152776 0.05
v 0.9052461 0.90923612 0.05
v 0.42870124 0.56929095 0.05
v 0.43816359 0.56296839 0.05
v 0.45303298 0.55303302 0.05
v 0.46929099 0.52870124 0.05
v 0.47151114 0.51753962 0.05
v 0.47499999 0.49999999 0.05
v 0.45303298 0.446967 0.05
v 0.44357062 0.44064445 0.05
v 0.42870124 0.43070903 0.05
v 0.346967 0.446967 0.05
v 0.34064445 0.45642936 0.05
v 0.33193946 0.46945727 0.05
v 0.00524614 -0.06076389 0.05
v -0.04296436 -0.06076389 0.05
v -0.37754864 -0.53396163 0.05
v 0.075 -0.065 0.05
v 0.075 0.0025 0.05
v 0.075 0.085 0.05
v 0.54923728 0.42398601 0.05
v 0.62525122 0.49999999 0.05
v 0.57398604 0.6007627 0.05
v 0.64999999 0.52474871 0.05
v 0.72601393 0.6007627 0.05
v 0.75076269 0.57601397 0.05
v 0.67474875 0.49999999 0.05
v 0.75076269 0.42398601 0.05
v 0.72601393 0.39923728 0.05
v 0.64999999 0.47525126 0.05
v 0.57398604 0.39923728 0.05
v 0.22499999 0.085 0.05
v 0.22499999 0.0175 0.05
v 0.22499999 -0.065 0.05
v 0.1425 -0.065 0.05
v 0.29923728 -0.04601398 0.05
v 0.37525127 0.03 0.05
v 0.29923728 0.10601397 0.05
v 0.3116735 0.11845022 0.05
v 0.32398601 0.13076271 0.05
v 0.39999999 0.05474873 0.05
v 0.47601394 0.13076271 0.05
v 0.82499998 0.40499999 0.05
v 0.82499998 0.47249999 0.05
v 0.89249998 0.40499999 0.05
v 0.48845023 0.11832647 0.05
v 0.5007627 0.10601397 0.05
v 0.42474875 0.03 0.05
v 0.5007627 -0.04601398 0.05
v 0.47601394 -0.07076271 0.05
v 0.39999999 0.00525126 0.05
v 0.32398601 -0.07076271 0.05
v 0.31154979 -0.05832647 0.05
v -0.34475385 -0.59076388 0.05
v -0.41771184 -0.59076388 0.05
v -0.66231936 -0.93670881 0.05
v -0.646967 -0.94696699 0.05
v -0.64064444 -0.95642935 0.05
v -0.63070902 -0.97129873 0.05
v -0.62499999 -0.99999998 0.05
v -0.62722018 -1.01116155 0.05
v -0.63070902 -1.02870123 0.05
v -0.63703158 -1.03816358 0.05
v -0.646967 -1.05303297 0.05
v -0.65642935 -1.05935552 0.05
v -0.67129874 -1.06929098 0.05
v -0.68246035 -1.07151113 0.05
v -0.69999998 -1.07499998 0.05
v -0.7111616 -1.07277982 0.05
v -0.72870123 -1.06929098 0.05
v -0.73816359 -1.06296842 0.05
v -0.74728461 -1.05687391 0.05
v -0.52474873 -0.99999998 0.05
v -0.6007627 -0.92398603 0.05
v -0.58832648 -0.91154974 0.05
v -0.57601397 -0.89923727 0.05
v -0.39923728 -0.92398603 0.05
v -0.47525124 -0.99999998 0.05
v -0.39923728 -1.07601392 0.05
v -0.22499999 -1.09499998 0.05
v 0.22499999 -1.09499998 0.05
v 0.41116157 0.5727798 0.05
v -0.0164246 -0.02322907 0.05
v 0.97499998 0.40499999 0.05
v -0.66183638 -0.93703153 0.05
v -0.22499999 -1.01249998 0.05
v -0.07 -0.90847219 0.05
v 0.64999999 -0.90847219 0.05
v 0.36183639 0.43703155 0.05
v 0.075 -1.02749998 0.05
v 0.22499999 -1.01249998 0.05
v -0.41167352 -1.08845022 0.05
v 0.075 -0.94499998 0.05
v 0.22499999 -0.94499998 0.05
v 0.48832648 -1.08845022 0.05
v 0.45935553 0.54357066 0.05
v 0.56154975 0.4116735 0.05
v 0.1575 0.085 0.05
v 0.1575 -0.94499998 0.05
v 0.37129874 0.43070903 0.05
v 0.38883838 0.42722018 0.05
v 0.39999999 0.42499999 0.05
v -0.41154977 -0.91167349 0.05
v 0.41753966 0.42848884 0.05
v -0.62848883 -0.98246031 0.05
v -0.42398601 -0.89923727 0.05
v 0.73832648 0.41154979 0.05
v 0.97499998 0.0175 0.05
v 0.46296843 0.46183638 0.05
v 0.75524611 -0.06076389 0.05
v 0.54475386 -0.06076389 0.05
v -0.49999999 -0.97525121 0.05
v 0.97499998 0.085 0.05
v 0.46929099 0.47129874 0.05
v 0.82499998 0.55499999 0.05
v 0.47277984 0.48883838 0.05
v 0.73845022 0.58832648 0.05
v 0.48832648 -0.05845022 0.05
v 0.64999999 0.12152777 0.05
v 0.90749998 0.55499999 0.05
v 0.54923728 0.57601397 0.05
v 0.97499998 0.55499999 0.05
v 0.90749998 0.085 0.05
v 0.5616735 0.58845019 0.05
v 0.97499998 0.48749999 0.05
v 1.04999998 -1.48499997 -0.05
v -1.04999998 1.48499997 -0.05
v -0.97499998 0.55499999 0.05
v -0.75303297 -1.05303297 0.05
v -0.75935553 -1.04357061 0.05
v -0.76929095 -1.02870123 0.05
v -0.77151114 -1.01753965 0.05
v -0.77499998 -0.99999998 0.05
v -0.72870123 -0.93070898 0.05
v -0.71753962 -0.92848883 0.05
v -0.69999998 -0.92499998 0.05
v -0.67129874 -0.93070898 0.05
v -0.44999999 -0.4084722 0.05
v 0.33070903 0.47129874 0.05
v 0.32848884 0.48246035 0.05
v 0.32499999 0.49999999 0.05
v 0.33070903 0.52870124 0.05
v 0.33703159 0.53816359 0.05
v 0.346967 0.55303302 0.05
v 0.37129874 0.56929095 0.05
v 0.38246036 0.57151114 0.05
v 0.39999999 0.57499999 0.05
v 0.02398601 1.10076269 0.05
v 0.1 1.02474874 0.05
v 0.17601398 1.10076269 0.05
v 0.20076271 1.07601392 0.05
v 0.12474872 0.99999998 0.05
v 0.20076271 0.92398603 0.05
v 0.18832649 0.91154974 0.05
v 0.17601398 0.89923727 0.05
v 0.1 0.97525121 0.05
v 0.125 0.55499999 0.05
v 0.125 0.40499999 0.05
v -0.00076271 0.92398603 0.05
v 0.07525127 0.99999998 0.05
v -0.00076271 1.07601392 0.05
v 0.01167353 1.08845022 0.05
v -0.15 1.07499998 0.05
v -0.12129874 1.06929098 0.05
v -0.11183639 1.06296842 0.05
v -0.09696699 1.05303297 0.05
v -0.09064445 1.04357061 0.05
v -0.08070904 1.02870123 0.05
v -0.07848886 1.01753965 0.05
v -0.075 0.99999998 0.05
v -0.08703157 0.96183637 0.05
v -0.09696699 0.94696699 0.05
v -0.1 0.59152777 0.05
v -0.20524614 0.4092361 0.05
v -0.12129874 0.93070898 0.05
v -0.13246034 0.92848883 0.05
v -0.15 0.92499998 0.05
v -0.17870125 0.93070898 0.05
v -0.1881636 0.93703153 0.05
v -0.203033 0.94696699 0.05
v -0.20935555 0.95642935 0.05
v -0.21929096 0.97129873 0.05
v -0.22151114 0.98246031 0.05
v -0.22499999 0.99999998 0.05
v -0.17870125 1.06929098 0.05
v -0.16753965 1.07151113 0.05
v -0.42601398 1.10076269 0.05
v -0.34999999 1.02474874 0.05
v -0.27398602 1.10076269 0.05
v -0.24923728 1.07601392 0.05
v -0.32525126 0.99999998 0.05
v -0.24923728 0.92398603 0.05
v -0.26167352 0.91154974 0.05
v -0.27398602 0.89923727 0.05
v -0.34999999 0.97525121 0.05
v -0.29999999 0.57499999 0.05
v -0.27129874 0.56929095 0.05
v -0.26183639 0.56296839 0.05
v -0.24696699 0.55303302 0.05
v -0.23070903 0.52870124 0.05
v -0.22848885 0.51753962 0.05
v -0.22499999 0.49999999 0.05
v -0.24696699 0.446967 0.05
v -0.25642933 0.44064445 0.05
v -0.27129874 0.43070903 0.05
v -0.28246034 0.42848884 0.05
v -0.29999999 0.42499999 0.05
v -0.29999999 0.075 0.05
v -0.28883839 0.07277982 0.05
v -0.27129874 0.06929097 0.05
v -0.26183639 0.06296842 0.05
v -0.24696699 0.05303301 0.05
v -0.24064445 0.04357066 0.05
v -0.23070903 0.02870126 0.05
v -0.22848885 0.01753966 0.05
v -0.22499999 0 0.05
v -0.22722017 -0.0111616 0.05
v -0.23070903 -0.02870126 0.05
v -0.27129874 -0.06929097 0.05
v -0.28246034 -0.07151114 0.05
v -0.29999999 -0.075 0.05
v -0.32870125 -0.06929097 0.05
v -0.3381636 -0.06296842 0.05
v -0.353033 -0.05303301 0.05
v -0.36929095 -0.02870126 0.05
v -0.37151114 -0.01753966 0.05
v -0.37499999 0 0.05
v -0.36929095 0.02870126 0.05
v -0.36296842 0.0381636 0.05
v -0.353033 0.05303301 0.05
v -0.32870125 0.06929097 0.05
v -0.31753965 0.07151114 0.05
v -0.31116159 0.42722018 0.05
v -0.353033 0.446967 0.05
v -0.35935554 0.45642936 0.05
v -0.36929095 0.47129874 0.05
v -0.37151114 0.48246035 0.05
v -0.37499999 0.49999999 0.05
v -0.36929095 0.52870124 0.05
v -0.36296842 0.53816359 0.05
v -0.353033 0.55303302 0.05
v -0.32870125 0.56929095 0.05
v -0.31753965 0.57151114 0.05
v -0.42601398 0.89923727 0.05
v -0.4507627 0.92398603 0.05
v -0.37474873 0.99999998 0.05
v -0.4507627 1.07601392 0.05
v -0.43832646 1.08845022 0.05
v -0.59999999 1.07499998 0.05
v -0.57129874 1.06929098 0.05
v -0.56183638 1.06296842 0.05
v -0.54696698 1.05303297 0.05
v -0.54064444 1.04357061 0.05
v -0.53070903 1.02870123 0.05
v -0.52848885 1.01753965 0.05
v -0.52499999 0.99999998 0.05
v -0.49999999 0.59152777 0.05
v -0.39475385 0.4092361 0.05
v -0.57601397 0.13076271 0.05
v -0.49999999 0.05474873 0.05
v -0.42398601 0.13076271 0.05
v -0.39923728 0.10601397 0.05
v -0.47525124 0.03 0.05
v -0.39923728 -0.04601398 0.05
v -0.42398601 -0.07076271 0.05
v -0.49999999 0.00525126 0.05
v -0.57601397 -0.07076271 0.05
v -0.6007627 -0.04601398 0.05
v -0.52474873 0.03 0.05
v -0.6007627 0.10601397 0.05
v -0.58832648 0.11845022 0.05
v -0.60524611 0.4092361 0.05
v -0.57129874 0.93070898 0.05
v -0.58246035 0.92848883 0.05
v -0.59999999 0.92499998 0.05
v -0.62870123 0.93070898 0.05
v -0.63816359 0.93703153 0.05
v -0.65303297 0.94696699 0.05
v -0.65935553 0.95642935 0.05
v -0.66929095 0.97129873 0.05
v -0.67151114 0.98246031 0.05
v -0.67499998 0.99999998 0.05
v -0.62870123 1.06929098 0.05
v -0.61753962 1.07151113 0.05
v -0.69999998 0.57499999 0.05
v -0.68883837 0.5727798 0.05
v -0.67129874 0.56929095 0.05
v -0.66183638 0.56296839 0.05
v -0.646967 0.55303302 0.05
v -0.63070902 0.52870124 0.05
v -0.62848883 0.51753962 0.05
v -0.62499999 0.49999999 0.05
v -0.646967 0.446967 0.05
v -0.65642935 0.44064445 0.05
v -0.67129874 0.43070903 0.05
v -0.68246035 0.42848884 0.05
v -0.69999998 0.42499999 0.05
v -0.69999998 -0.4084722 0.05
v -0.59475386 -0.59076388 0.05
v -0.80524611 -0.59076388 0.05
v -0.75303297 0.446967 0.05
v -0.75935553 0.45642936 0.05
v -0.76929095 0.47129874 0.05
v -0.77151114 0.48246035 0.05
v -0.77499998 0.49999999 0.05
v -0.76929095 0.52870124 0.05
v -0.76296839 0.53816359 0.05
v -0.75303297 0.55303302 0.05
v -0.72870123 0.56929095 0.05
v -0.71753962 0.57151114 0.05
v -0.82499998 0.40499999 0.05
v -0.90749998 0.40499999 0.05
v -0.89999998 0.075 0.05
v -0.87129873 0.06929097 0.05
v -0.86183638 0.06296842 0.05
v -0.84696699 0.05303301 0.05
v -0.84064444 0.04357066 0.05
v -0.83070902 0.02870126 0.05
v -0.82848883 0.01753966 0.05
v -0.82499998 0 0.05
v -0.87129873 -0.06929097 0.05
v -0.88246035 -0.07151114 0.05
v -0.89999998 -0.075 0.05
v -0.89999998 -0.42499999 0.05
v -0.88883837 -0.42722018 0.05
v -0.87129873 -0.43070903 0.05
v -0.86183638 -0.43703158 0.05
v -0.84696699 -0.44696696 0.05
v -0.83070902 -0.47129874 0.05
v -0.82848883 -0.48246035 0.05
v -0.82499998 -0.49999999 0.05
v -0.84696699 -0.55303298 0.05
v -0.85642935 -0.55935553 0.05
v -0.87129873 -0.56929095 0.05
v -0.88246035 -0.57151114 0.05
v -0.89999998 -0.57499999 0.05
v -0.89999998 -0.90847219 0.05
v -0.79475386 -1.09076383 0.05
v -1.0052461 -1.09076383 0.05
v -0.95303297 -0.55303298 0.05
v -0.95935552 -0.54357062 0.05
v -0.96929098 -0.52870124 0.05
v -0.97151113 -0.51753962 0.05
v -0.97499998 -0.49999999 0.05
v -0.96929098 -0.47129874 0.05
v -0.96296842 -0.46183638 0.05
v -0.95303297 -0.44696696 0.05
v -0.92870123 -0.43070903 0.05
v -0.91753965 -0.42848884 0.05
v -0.91116155 -0.07277982 0.05
v -0.96929098 -0.02870126 0.05
v -0.97151113 -0.01753966 0.05
v -0.97499998 0 0.05
v -0.96929098 0.02870126 0.05
v -0.96296842 0.0381636 0.05
v -0.95303297 0.05303301 0.05
v -0.94357061 0.05935555 0.05
v -0.92870123 0.06929097 0.05
v -0.91753965 0.07151114 0.05
v -0.97499998 0.40499999 0.05
v -0.68883837 -0.92722013 0.05
v -0.20524614 -0.06076389 0.05
v 0.02398601 0.89923727 0.05
v -0.08070904 0.97129873 0.05
v -0.10642934 0.94064443 0.05
v -0.52722016 0.9888384 0.05
v -0.7111616 0.42722018 0.05
v -0.88883837 0.07277982 0.05
v -0.91116155 -0.5727798 0.05
v -0.1 0.12152777 0.05
v 0.35642936 0.55935553 0.05
v 0.1884502 1.08832647 0.05
v 0.27499999 0.55499999 0.05
v 0.01154978 0.91167349 0.05
v -0.13883839 1.07277982 0.05
v -0.07722017 0.9888384 0.05
v -0.28883839 0.5727798 0.05
v -0.34357065 0.05935555 0.05
v -0.34357065 0.55935553 0.05
v -0.58883837 1.07277982 0.05
v -0.53070903 0.97129873 0.05
v -0.64357062 1.05935552 0.05
v -0.72870123 0.43070903 0.05
v -0.74357062 0.55935553 0.05
v -0.85642935 -0.05935555 0.05
v -0.92870123 -0.56929095 0.05
v -0.94357061 -0.44064445 0.05
v -0.19357066 1.05935552 0.05
v -0.23703157 0.46183638 0.05
v -0.53703156 0.96183637 0.05
v -0.65303297 1.05303297 0.05
v -0.64064444 0.54357066 0.05
v -0.63703158 0.46183638 0.05
v -0.73816359 0.43703155 0.05
v -0.82499998 0.55499999 0.05
v -0.84696699 -0.05303301 0.05
v -0.83703157 -0.53816359 0.05
v -0.93816358 -0.56296843 0.05
v -0.74357062 -0.94064443 0.05
v 0.00524614 0.4092361 0.05
v -0.1611616 0.92722013 0.05
v -0.203033 1.05303297 0.05
v -0.23070903 0.47129874 0.05
v -0.54696698 0.94696699 0.05
v -0.66296839 1.03816358 0.05
v -0.63070902 0.47129874 0.05
v -0.83703157 -0.0381636 0.05
v -0.83070902 -0.52870124 0.05
v -0.97277982 0.0111616 0.05
v -0.75303297 -0.94696699 0.05
v -0.26154978 1.08832647 0.05
v -0.22722017 0.48883838 0.05
v -0.37277981 0.0111616 0.05
v -0.37277981 0.5111616 0.05
v -0.55642934 0.94064443 0.05
v -0.66929095 1.02870123 0.05
v -0.62722018 0.48883838 0.05
v -0.83070902 -0.02870126 0.05
v -0.82722017 -0.5111616 0.05
v -0.97277982 -0.48883838 0.05
v -0.55524613 -0.59076388 0.05
v 0.32722018 0.5111616 0.05
v -0.24064445 0.54357066 0.05
v -0.67277979 1.01116155 0.05
v -0.77277979 0.5111616 0.05
v -0.82722017 -0.0111616 0.05
v -0.76296839 -0.96183637 0.05
v -0.21296842 1.03816358 0.05
v -0.32870125 0.43070903 0.05
v -0.43845021 0.91167349 0.05
v -0.92870123 -0.06929097 0.05
v -0.76929095 -0.97129873 0.05
v -0.21929096 1.02870123 0.05
v -0.3381636 0.43703155 0.05
v -0.6111616 0.92722013 0.05
v -0.93816358 -0.06296842 0.05
v -0.95935552 -0.04357066 0.05
v -0.22277981 1.01116155 0.05
v -0.95303297 -0.05303301 0.05
v 0.27499999 0.40499999 0.05
v -0.84064444 -0.45642932 0.05
v -0.35935554 -0.04357066 0.05
v -0.58845019 -0.05832647 0.05
v -0.77277979 -0.9888384 0.05
v -0.24696699 -0.05303301 0.05
v -0.31116159 -0.07277982 0.05
v -0.25642933 -0.05935555 0.05
v -1.04999998 -1.48499997 -0.05
v 0.33070903 0.52870124 -0.05
v 0.32848884 0.51753962 -0.05
v 0.32499999 0.49999999 -0.05
v 0.33070903 0.47129874 -0.05
v 0.33703159 0.46183638 -0.05
v 0.346967 0.44696696 -0.05
v 0.37129874 0.43070903 -0.05
v 0.38246036 0.42848884 -0.05
v 0.39999999 0.42499999 -0.05
v 0.42870124 0.43070903 -0.05
v 0.43816359 0.43703158 -0.05
v 0.45303298 0.44696696 -0.05
v 0.46929099 0.47129874 -0.05
v 0.47151114 0.48246035 -0.05
v 0.47499999 0.49999999 -0.05
v 0.45303298 0.55303298 -0.05
v 0.44357062 0.55935553 -0.05
v 0.42870124 0.56929095 -0.05
v 0.41753966 0.57151114 -0.05
v 0.39999999 0.57499999 -0.05
v 0.79999998 1.09291662 -0.05
v 0.72601393 0.6007627 -0.05
v 0.64999999 0.52474871 -0.05
v 0.57398604 0.6007627 -0.05
v 0.54923728 0.57601397 -0.05
v 0.47601394 0.13076271 -0.05
v 0.39999999 0.05474873 -0.05
v 0.32398601 0.13076271 -0.05
v 0.31291095 0.11968765 -0.05
v 0.29923728 0.10601397 -0.05
v 0.37525127 0.03 -0.05
v 0.29923728 -0.04601398 -0.05
v 0.32398601 -0.07076271 -0.05
v 0.39999999 0.00525126 -0.05
v 0.47601394 -0.07076271 -0.05
v 0.48708899 -0.05968765 -0.05
v 0.5007627 -0.04601398 -0.05
v 0.42474875 0.03 -0.05
v 0.5007627 0.10601397 -0.05
v 0.57398604 0.39923728 -0.05
v 0.64999999 0.47525126 -0.05
v 0.64999999 0.12291667 -0.05
v 0.75644896 -0.06145833 -0.05
v 0.75076269 0.42398601 -0.05
v 0.67474875 0.49999999 -0.05
v 0.75076269 0.57601397 -0.05
v 0.90644895 0.90854162 -0.05
v 0.97499998 0.55499999 -0.05
v 0.82499998 0.55499999 -0.05
v 0.82499998 0.40499999 -0.05
v 0.97499998 0.40499999 -0.05
v 0.97499998 0.085 -0.05
v 0.97499998 -0.065 -0.05
v 0.68840063 -0.97359518 -0.05
v 0.64999999 -0.90708334 -0.05
v 0.64612174 -0.91380072 -0.05
v -0.3005877 0.42511691 -0.05
v -0.27129874 0.43070903 -0.05
v -0.26183639 0.43703158 -0.05
v -0.24696699 0.44696696 -0.05
v -0.23070903 0.47129874 -0.05
v -0.22848885 0.48246035 -0.05
v -0.22499999 0.49999999 -0.05
v -0.24696699 0.55303298 -0.05
v -0.25642933 0.55935553 -0.05
v -0.27129874 0.56929095 -0.05
v -0.28246034 0.57151114 -0.05
v -0.29999999 0.57499999 -0.05
v -0.353033 0.55303298 -0.05
v -0.35935554 0.54357062 -0.05
v -0.36929095 0.52870124 -0.05
v -0.37028733 0.52369208 -0.05
v -0.59999999 1.07499998 -0.05
v -0.62870123 1.06929098 -0.05
v -0.63816359 1.06296842 -0.05
v -0.65303297 1.05303297 -0.05
v -0.65935553 1.04357061 -0.05
v -0.66929095 1.02870123 -0.05
v -0.67151114 1.01753965 -0.05
v -0.67499998 0.99999998 -0.05
v -0.62870123 0.93070898 -0.05
v -0.61753962 0.92848883 -0.05
v -0.59999999 0.92499998 -0.05
v -0.57129874 0.93070898 -0.05
v -0.56183638 0.93703153 -0.05
v -0.54696698 0.94696699 -0.05
v -0.54064444 0.95642935 -0.05
v -0.53070903 0.97129873 -0.05
v -0.52848885 0.98246031 -0.05
v -0.52499999 0.99999998 -0.05
v -0.57129874 1.06929098 -0.05
v -0.58246035 1.07151113 -0.05
v -0.27398602 1.10076269 -0.05
v -0.34999999 1.02474874 -0.05
v -0.42601398 1.10076269 -0.05
v -0.4507627 1.07601392 -0.05
v -0.37474873 0.99999998 -0.05
v -0.4507627 0.92398603 -0.05
v -0.42601398 0.89923727 -0.05
v -0.34999999 0.97525121 -0.05
v -0.27398602 0.89923727 -0.05
v -0.24923728 0.92398603 -0.05
v -0.32525126 0.99999998 -0.05
v -0.24923728 1.07601392 -0.05
v -0.26031234 1.08708898 -0.05
v -0.15 1.07499998 -0.05
v -0.17870125 1.06929098 -0.05
v -0.1881636 1.06296842 -0.05
v -0.203033 1.05303297 -0.05
v -0.20935555 1.04357061 -0.05
v -0.21929096 1.02870123 -0.05
v -0.22151114 1.01753965 -0.05
v -0.22499999 0.99999998 -0.05
v -0.17870125 0.93070898 -0.05
v -0.16753965 0.92848883 -0.05
v -0.15 0.92499998 -0.05
v -0.12129874 0.93070898 -0.05
v -0.11183639 0.93703153 -0.05
v -0.09696699 0.94696699 -0.05
v -0.1 0.59291667 -0.05
v -0.20644895 0.40854167 -0.05
v 0.00644896 0.40854167 -0.05
v -0.09064445 0.95642935 -0.05
v -0.08070904 0.97129873 -0.05
v -0.07848886 0.98246031 -0.05
v -0.075 0.99999998 -0.05
v -0.12129874 1.06929098 -0.05
v -0.13246034 1.07151113 -0.05
v 0.17601398 1.10076269 -0.05
v 0.1 1.02474874 -0.05
v 0.02398601 1.10076269 -0.05
v -0.00076271 1.07601392 -0.05
v 0.07525127 0.99999998 -0.05
v -0.00076271 0.92398603 -0.05
v 0.02398601 0.89923727 -0.05
v 0.1 0.97525121 -0.05
v 0.17601398 0.89923727 -0.05
v 0.20076271 0.92398603 -0.05
v 0.12474872 0.99999998 -0.05
v 0.20076271 1.07601392 -0.05
v 0.27499999 0.55499999 -0.05
v 0.125 0.55499999 -0.05
v 0.22499999 0.0025 -0.05
v 0.22499999 0.085 -0.05
v 0.27499999 0.40499999 -0.05
v 0.346967 0.55303298 -0.05
v 0.34064445 0.54357062 -0.05
v 0.54923728 0.42398601 -0.05
v 0.72601393 0.39923728 -0.05
v 0.82499998 0.085 -0.05
v -0.29999999 0.42499999 -0.05
v -0.6111616 1.07277982 -0.05
v 0.22499999 -0.065 -0.05
v 0.38883838 0.5727798 -0.05
v 0.69355101 0.90854162 -0.05
v 0.54355101 -0.06145833 -0.05
v 0.82499998 -0.065 -0.05
v -0.28883839 0.42722018 -0.05
v -0.1611616 1.07277982 -0.05
v -0.13883839 0.92722013 -0.05
v -0.10642934 1.05935552 -0.05
v 0.37129874 0.56929095 -0.05
v 0.46296843 0.53816359 -0.05
v -0.55642934 1.05935552 -0.05
v 0.36183639 0.56296843 -0.05
v 0.46929099 0.52870124 -0.05
v 0.48968764 0.11708903 -0.05
v 0.62525122 0.49999999 -0.05
v -0.54696698 1.05303297 -0.05
v -0.09696699 1.05303297 -0.05
v -0.53703156 1.03816358 -0.05
v -0.19357066 0.94064443 -0.05
v -0.08703157 1.03816358 -0.05
v 0.47277984 0.5111616 -0.05
v -0.67277979 0.9888384 -0.05
v -0.53070903 1.02870123 -0.05
v -0.203033 0.94696699 -0.05
v -0.08070904 1.02870123 -0.05
v 0.125 0.40499999 -0.05
v -0.66929095 0.97129873 -0.05
v -0.52722016 1.01116155 -0.05
v -0.21296842 0.96183637 -0.05
v -0.07722017 1.01116155 -0.05
v -0.66296839 0.96183637 -0.05
v -0.22277981 0.9888384 -0.05
v -0.21929096 0.97129873 -0.05
v 0.1425 0.085 -0.05
v -0.65303297 0.94696699 -0.05
v 0.32722018 0.48883838 -0.05
v 0.45935553 0.45642932 -0.05
v 0.075 0.085 -0.05
v 0.31031234 -0.05708904 -0.05
v -0.26291096 0.91031233 -0.05
v 0.075 0.0175 -0.05
v -0.3381636 0.56296843 -0.05
v 0.35642936 0.44064445 -0.05
v 0.41116157 0.42722018 -0.05
v -0.32870125 0.56929095 -0.05
v -0.31116159 0.5727798 -0.05
v -0.58883837 0.92722013 -0.05
v 0.075 -0.065 -0.05
v -0.64357062 0.94064443 -0.05
v 0.1575 -0.065 -0.05
v -0.23703157 0.53816359 -0.05
v -0.23070903 0.52870124 -0.05
v -0.24064445 0.45642932 -0.05
v -0.22722017 0.5111616 -0.05
v -0.31753965 0.42848884 -0.05
v 0.00644896 -0.06145833 -0.05
v -0.1 0.12291667 -0.05
v -0.39355104 0.40854167 -0.05
v -0.49999999 0.59291667 -0.05
v -0.62499999 0.49999999 -0.05
v -0.62722018 0.5111616 -0.05
v -0.646967 0.55303298 -0.05
v -0.65642935 0.55935553 -0.05
v -0.67129874 0.56929095 -0.05
v -0.68246035 0.57151114 -0.05
v -0.69999998 0.57499999 -0.05
v -0.75303297 0.55303298 -0.05
v -0.75935553 0.54357062 -0.05
v -0.76929095 0.52870124 -0.05
v -0.77151114 0.51753962 -0.05
v -0.77499998 0.49999999 -0.05
v -0.76929095 0.47129874 -0.05
v -0.76296839 0.46183638 -0.05
v -0.75303297 0.44696696 -0.05
v -0.72870123 0.43070903 -0.05
v -0.71753962 0.42848884 -0.05
v -0.69999998 0.42499999 -0.05
v -0.67129874 0.43070903 -0.05
v -0.66183638 0.43703158 -0.05
v -0.646967 0.44696696 -0.05
v -0.63070902 0.47129874 -0.05
v -0.62848883 0.48246035 -0.05
v -0.22499999 -0 -0.05
v -0.22722017 0.0111616 -0.05
v -0.23070903 0.02870126 -0.05
v -0.27129874 0.06929097 -0.05
v -0.28246034 0.07151114 -0.05
v -0.29999999 0.075 -0.05
v -0.32870125 0.06929097 -0.05
v -0.3381636 0.06296842 -0.05
v -0.353033 0.05303301 -0.05
v -0.36929095 0.02870126 -0.05
v -0.37151114 0.01753966 -0.05
v -0.37499999 0 -0.05
v -0.36929095 -0.02870126 -0.05
v -0.36296842 -0.0381636 -0.05
v -0.353033 -0.05303301 -0.05
v -0.39923728 -0.04601398 -0.05
v -0.47525124 0.03 -0.05
v -0.42398601 0.13076271 -0.05
v -0.49999999 0.05474873 -0.05
v -0.57601397 0.13076271 -0.05
v -0.58708903 0.11968765 -0.05
v -0.6007627 0.10601397 -0.05
v -0.52474873 0.03 -0.05
v -0.82499998 -0 -0.05
v -0.87129873 0.06929097 -0.05
v -0.88246035 0.07151114 -0.05
v -0.89999998 0.075 -0.05
v -0.96929098 0.02870126 -0.05
v -0.97151113 0.01753966 -0.05
v -0.97499998 0 -0.05
v -0.96929098 -0.02870126 -0.05
v -0.96296842 -0.0381636 -0.05
v -0.95303297 -0.05303301 -0.05
v -0.94357061 -0.05935555 -0.05
v -0.92870123 -0.06929097 -0.05
v -0.91753965 -0.07151114 -0.05
v -0.89999998 -0.075 -0.05
v -0.87129873 -0.06929097 -0.05
v -0.86183638 -0.06296842 -0.05
v -0.84696699 -0.05303301 -0.05
v -0.84064444 -0.04357066 -0.05
v -0.83070902 -0.02870126 -0.05
v -0.82848883 -0.01753966 -0.05
v -0.6007627 -0.04601398 -0.05
v -0.57601397 -0.07076271 -0.05
v -0.49999999 0.00525126 -0.05
v -0.42398601 -0.07076271 -0.05
v -0.41291095 -0.05968765 -0.05
v -0.34357065 -0.05935555 -0.05
v -0.32870125 -0.06929097 -0.05
v -0.31753965 -0.07151114 -0.05
v -0.29999999 -0.075 -0.05
v -0.27129874 -0.06929097 -0.05
v -0.26183639 -0.06296842 -0.05
v -0.24696699 -0.05303301 -0.05
v -0.24064445 -0.04357066 -0.05
v -0.23070903 -0.02870126 -0.05
v -0.22848885 -0.01753966 -0.05
v -0.20644895 -0.06145833 -0.05
v -0.34355104 -0.59145831 -0.05
v -0.44999999 -0.40708331 -0.05
v -0.55644894 -0.59145831 -0.05
v -0.59355105 -0.59145831 -0.05
v -0.80644892 -0.59145831 -0.05
v 0.47601394 -0.89923727 -0.05
v 0.39999999 -0.97525121 -0.05
v 0.32398601 -0.89923727 -0.05
v 0.29923728 -0.92398603 -0.05
v 0.37525127 -0.99999998 -0.05
v 0.29923728 -1.07601392 -0.05
v 0.075 -1.09499998 -0.05
v 0.03644895 -1.09145833 -0.05
v -0.07 -0.90708334 -0.05
v -0.39923728 -1.07601392 -0.05
v -0.47525124 -0.99999998 -0.05
v -0.39923728 -0.92398603 -0.05
v -0.42398601 -0.89923727 -0.05
v -0.49999999 -0.97525121 -0.05
v -0.57601397 -0.89923727 -0.05
v -0.6007627 -0.92398603 -0.05
v -0.52474873 -0.99999998 -0.05
v -0.62499999 -0.99999998 -0.05
v -0.67129874 -0.93070898 -0.05
v -0.68246035 -0.92848883 -0.05
v -0.69999998 -0.92499998 -0.05
v -0.72870123 -0.93070898 -0.05
v -0.73816359 -0.93703153 -0.05
v -0.75303297 -0.94696699 -0.05
v -0.75935553 -0.95642935 -0.05
v -0.76929095 -0.97129873 -0.05
v -0.77151114 -0.98246031 -0.05
v -0.77499998 -0.99999998 -0.05
v -0.72870123 -1.06929098 -0.05
v -0.71753962 -1.07151113 -0.05
v -0.69999998 -1.07499998 -0.05
v -0.67129874 -1.06929098 -0.05
v -0.66183638 -1.06296842 -0.05
v -0.646967 -1.05303297 -0.05
v -0.64064444 -1.04357061 -0.05
v -0.63070902 -1.02870123 -0.05
v -0.62848883 -1.01753965 -0.05
v -0.6007627 -1.07601392 -0.05
v -0.79355105 -1.09145833 -0.05
v -0.89999998 -0.90708334 -0.05
v -0.88883837 -0.5727798 -0.05
v -0.87129873 -0.56929095 -0.05
v -0.86183638 -0.56296839 -0.05
v -0.84696699 -0.55303302 -0.05
v -0.83070902 -0.52870124 -0.05
v -0.82848883 -0.51753962 -0.05
v -0.82499998 -0.49999999 -0.05
v -0.84696699 -0.446967 -0.05
v -0.85642935 -0.44064445 -0.05
v -0.87129873 -0.43070903 -0.05
v -0.88246035 -0.42848884 -0.05
v -0.89999998 -0.42499999 -0.05
v -0.95303297 -0.446967 -0.05
v -0.95935552 -0.45642936 -0.05
v -0.96929098 -0.47129874 -0.05
v -0.97151113 -0.48246035 -0.05
v -0.97499998 -0.49999999 -0.05
v -0.96929098 -0.52870124 -0.05
v -0.96296842 -0.53816359 -0.05
v -0.95303297 -0.55303302 -0.05
v -0.92870123 -0.56929095 -0.05
v -0.91753965 -0.57151114 -0.05
v -0.89999998 -0.57499999 -0.05
v -1.00644895 -1.09145833 -0.05
v -0.57601397 -1.10076269 -0.05
v -0.49999999 -1.02474874 -0.05
v -0.42398601 -1.10076269 -0.05
v 0.1575 -1.09499998 -0.05
v 0.22499999 -1.09499998 -0.05
v 0.32398601 -1.10076269 -0.05
v 0.39999999 -1.02474874 -0.05
v 0.47601394 -1.10076269 -0.05
v 0.5007627 -1.07601392 -0.05
v 0.54355101 -1.09145833 -0.05
v 0.75644896 -1.09145833 -0.05
v -0.37151114 0.51753962 -0.05
v -0.36929095 0.47129874 -0.05
v -0.36296842 0.46183638 -0.05
v -0.353033 0.44696696 -0.05
v -0.63070902 0.52870124 -0.05
v -0.60644892 0.40854167 -0.05
v -0.69999998 -0.40708331 -0.05
v 0.42474875 -0.99999998 -0.05
v -0.62722018 -0.9888384 -0.05
v -0.37499999 0.49999999 -0.05
v -0.32870125 0.43070903 -0.05
v -0.63703158 0.53816359 -0.05
v -0.24696699 0.05303301 -0.05
v -0.37277981 -0.0111616 -0.05
v -0.82722017 0.0111616 -0.05
v 0.5007627 -0.92398603 -0.05
v -0.63070902 -0.97129873 -0.05
v -0.94357061 -0.55935553 -0.05
v -0.37277981 0.48883838 -0.05
v -0.34357065 0.44064445 -0.05
v -0.83070902 0.02870126 -0.05
v -0.63703158 -0.96183637 -0.05
v -0.84064444 -0.54357066 -0.05
v -0.25642933 0.05935555 -0.05
v -0.83703157 0.0381636 -0.05
v -0.88883837 -0.07277982 -0.05
v -0.646967 -0.94696699 -0.05
v -0.68883837 -1.07277982 -0.05
v -0.35935554 0.04357066 -0.05
v -0.84696699 0.05303301 -0.05
v -0.28883839 -0.07277982 -0.05
v -0.97277982 -0.5111616 -0.05
v -0.85642935 0.05935555 -0.05
v -0.58968764 -0.05708904 -0.05
v 0.22499999 -0.94499998 -0.05
v -0.65642935 -0.94064443 -0.05
v -0.64064444 0.45642932 -0.05
v -0.31116159 0.07277982 -0.05
v -0.7111616 0.5727798 -0.05
v -0.39923728 0.10601397 -0.05
v 0.075 -0.94499998 -0.05
v -0.72870123 0.56929095 -0.05
v -0.7111616 -0.92722013 -0.05
v -0.74357062 -1.05935552 -0.05
v -0.73816359 0.56296843 -0.05
v -0.41031234 0.11708903 -0.05
v -0.75303297 -1.05303297 -0.05
v -0.68883837 0.42722018 -0.05
v -0.76296839 -1.03816358 -0.05
v -0.76929095 -1.02870123 -0.05
v -0.77277979 -1.01116155 -0.05
v -0.77277979 0.48883838 -0.05
v -0.91116155 0.07277982 -0.05
v -0.92870123 0.06929097 -0.05
v -0.93816358 0.06296842 -0.05
v -0.95303297 0.05303301 -0.05
v -0.97499998 0.40499999 -0.05
v -0.95935552 0.04357066 -0.05
v -0.82499998 0.55499999 -0.05
v -0.97499998 0.55499999 -0.05
v -0.82499998 0.47249999 -0.05
v -0.93816358 -0.43703155 -0.05
v -0.92870123 -0.43070903 -0.05
v -0.91116155 -0.42722018 -0.05
v -0.97277982 -0.0111616 -0.05
v -0.83703157 -0.46183638 -0.05
v -0.83070902 -0.47129874 -0.05
v -0.82722017 -0.48883838 -0.05
v -0.17644895 -1.09145833 -0.05
v -0.41291095 -1.08968763 -0.05
v -0.82499998 0.40499999 -0.05
v -0.41154977 0.11832647 0.05
v -0.41167352 -0.05845022 0.05
v 0.73968764 0.58708903 -0.05
v 0.73708899 0.41031234 -0.05
v 0.56291098 0.58968764 -0.05
v 0.56031233 0.41291095 -0.05
v 0.48968764 -0.91291098 -0.05
v 0.48708899 -1.08968763 -0.05
v 0.31291095 -0.91031233 -0.05
v 0.31031234 -1.08708898 -0.05
v -0.41031234 -0.91291098 -0.05
v -0.58708903 -0.91031233 -0.05
v -0.58968764 -1.08708898 -0.05
v 0.18968765 1.08708898 -0.05
v 0.18708904 0.91031233 -0.05
v 0.01291096 1.08968763 -0.05
v 0.01031235 0.91291098 -0.05
v -0.43708903 1.08968763 -0.05
v -0.43968764 0.91291098 -0.05
v 0.97499998 0.47249999 -0.05
v 0.90749998 0.40499999 -0.05
v 0.89249998 0.55499999 -0.05
v 0.82499998 0.48749999 -0.05
v 0.97499998 0.0025 -0.05
v 0.90749998 -0.065 -0.05
v 0.89249998 0.085 -0.05
v 0.82499998 0.0175 -0.05
v -0.22499999 -1.02749998 -0.05
v -0.22499999 -1.09499998 -0.05
v -0.29249999 -1.09499998 -0.05
v -0.22499999 -0.94499998 -0.05
v -0.37499999 -1.09499998 -0.05
v -0.30749999 -0.94499998 -0.05
v -0.37499999 -1.01249998 -0.05
v -0.37499999 -0.94499998 -0.05
v -0.82499998 0.48749999 0.05
v -0.89249998 0.40499999 -0.05
v -0.89249998 0.55499999 0.05
v -0.90749998 0.55499999 -0.05
v -0.97499998 0.47249999 0.05
v -0.97499998 0.48749999 -0.05
v 0.22499999 -1.02749998 -0.05
v 0.1425 -0.94499998 -0.05
v 0.075 -1.01249998 -0.05
v 0.27499999 0.47249999 -0.05
v 0.27499999 0.48749999 0.05
v 0.2075 0.40499999 -0.05
v 0.1925 0.40499999 0.05
v 0.2075 0.55499999 0.05
v 0.1925 0.55499999 -0.05
v 0.125 0.47249999 0.05
v 0.125 0.48749999 -0.05
v -0.23703157 -0.0381636 0.05
v -0.23703157 0.0381636 -0.05
v -0.74357062 0.44064445 -0.05
v -0.24999999 0 0
vn 1 0 0
vn 0 1 0
vn 0 0 1
vn 0 -1 0
vn 0 0 -1
vn -1 0 0
vn -0.70711 0.70711 0
vn -0.70711 -0.70711 0
vn 0.70711 -0.70711 0
vn 0.70711 0.70711 0
vn -0.866 -0.49999 -0.00694
vn 0 0.99998 -0.00694
vn 0.866 -0.49999 -0.00694
vn -0.19509 0.98079 0
vn -0.38268 0.92388 0
vn -0.55557 0.83147 0
vn 0 1 0
vn -0 1 0
vn -0.70711 0.70711 0
vn -0.70711 0.70711 0
vn 0.19509 0.98079 0
vn -0.83147 0.55557 0
vn 0.38268 0.92388 0
vn -0.92388 0.38268 0
vn 0.55557 0.83147 0
vn -0.98079 0.19509 -0
vn -0.98079 0.19509 -0
vn 0.70711 0.70711 0
vn -1 0 0
vn -1 -0 0
vn 0.83147 0.55557 0
vn -0.98079 -0.19509 0
vn -0.98079 -0.19509 0
vn 0.92388 0.38268 0
vn 0.92388 0.38268 0
vn -0.92388 -0.38268 0
vn 0.98079 0.19509 -0
vn 0.98079 0.19509 -0
vn -0.83147 -0.55557 0
vn 1 -0 -0
vn 1 0 -0
vn -0.70711 -0.70711 0
vn -0.70711 -0.70711 0
vn 0.98079 -0.19509 0
vn 0.98079 -0.19509 0
vn -0.55557 -0.83147 0
vn 0.92388 -0.38268 0
vn 0.92388 -0.38268 0
vn -0.38268 -0.92388 0
vn 0.83147 -0.55557 0
vn -0.19509 -0.98079 0
vn 0.70711 -0.70711 0
vn -0 -1 0
vn 0 -1 0
vn 0.55557 -0.83147 0
vn 0.19509 -0.98079 0
vn 0.38268 -0.92388 0
vn -0.19509 0.98079 0
vn -0.38268 0.92388 0
vn -0.55557 0.83147 -0
vn -0.55557 0.83147 -0
vn 0 1 0
vn -0 1 0
vn -0.70711 0.70711 -0
vn 0.19509 0.98079 0
vn -0.83147 0.55557 -0
vn -0.83147 0.55557 -0
vn 0.38268 0.92388 0
vn -0.92388 0.38268 0
vn -0.92388 0.38268 0
vn 0.55557 0.83147 -0
vn 0.55557 0.83147 -0
vn -0.98079 0.19509 0
vn 0.70711 0.70711 -0
vn 0.70711 0.70711 -0
vn -1 0 0
vn -1 -0 0
vn 0.83147 0.55557 -0
vn 0.83147 0.55557 -0
vn -0.98079 -0.19509 0
vn 0.92388 0.38268 0
vn 0.92388 0.38268 0
vn -0.92388 -0.38268 0
vn -0.92388 -0.38268 0
vn 0.98079 0.19509 0
vn -0.83147 -0.55557 0
vn -0.83147 -0.55557 0
vn 1 -0 0
vn 1 0 0
vn -0.70711 -0.70711 0
vn 0.98079 -0.19509 0
vn -0.55557 -0.83147 0
vn -0.55557 -0.83147 0
vn 0.92388 -0.38268 0
vn 0.92388 -0.38268 0
vn -0.38268 -0.92388 0
vn 0.83147 -0.55557 0
vn 0.83147 -0.55557 0
vn -0.19509 -0.98079 0
vn 0.70711 -0.70711 0
vn 0.70711 -0.70711 0
vn -0 -1 0
vn 0 -1 0
vn 0.55557 -0.83147 0
vn 0.55557 -0.83147 0
vn 0.19509 -0.98079 0
vn 0.38268 -0.92388 0
vn -0.19509 0.98079 0
vn -0.38268 0.92388 0
vn -0.38268 0.92388 0
vn -0.55557 0.83147 0
vn 0 1 0
vn -0 1 0
vn 0.19509 0.98079 0
vn -0.83147 0.55557 0
vn 0.38268 0.92388 0
vn 0.38268 0.92388 0
vn -0.92388 0.38268 0
vn -0.92388 0.38268 0
vn 0.55557 0.83147 0
vn -0.98079 0.19509 -0
vn -0.98079 0.19509 -0
vn 0.70711 0.70711 0
vn -1 0 0
vn -1 -0 0
vn 0.83147 0.55557 0
vn -0.98079 -0.19509 0
vn -0.98079 -0.19509 0
vn 0.92388 0.38268 0
vn 0.92388 0.38268 0
vn -0.92388 -0.38268 0
vn -0.92388 -0.38268 0
vn 0.98079 0.19509 -0
vn 0.98079 0.19509 -0
vn -0.83147 -0.55557 0
vn 1 -0 -0
vn 1 0 -0
vn 0.98079 -0.19509 0
vn 0.98079 -0.19509 0
vn -0.55557 -0.83147 0
vn 0.92388 -0.38268 0
vn 0.92388 -0.38268 0
vn -0.38268 -0.92388 0
vn -0.38268 -0.92388 0
vn 0.83147 -0.55557 0
vn -0.19509 -0.98079 0
vn 0.70711 -0.70711 0
vn -0 -1 0
vn 0 -1 0
vn 0.55557 -0.83147 0
vn 0.19509 -0.98079 0
vn 0.38268 -0.92388 0
vn 0.38268 -0.92388 0
vn -0.19509 0.98079 0
vn -0.38268 0.92388 0
vn -0.55557 0.83147 -0
vn -0.55557 0.83147 -0
vn 0 1 0
vn -0 1 0
vn -0.70711 0.70711 -0
vn 0.19509 0.98079 0
vn -0.83147 0.55557 -0
vn -0.83147 0.55557 -0
vn 0.38268 0.92388 0
vn -0.92388 0.38268 0
vn -0.92388 0.38268 0
vn 0.55557 0.83147 -0
vn 0.55557 0.83147 -0
vn -0.98079 0.19509 0
vn 0.70711 0.70711 -0
vn 0.70711 0.70711 -0
vn -1 0 0
vn -1 -0 0
vn 0.83147 0.55557 -0
vn 0.83147 0.55557 -0
vn -0.98079 -0.19509 0
vn 0.92388 0.38268 0
vn -0.92388 -0.38268 0
vn -0.92388 -0.38268 0
vn 0.98079 0.19509 0
vn -0.83147 -0.55557 0
vn -0.83147 -0.55557 0
vn 1 -0 0
vn 1 0 0
vn -0.70711 -0.70711 0
vn 0.98079 -0.19509 0
vn -0.55557 -0.83147 0
vn -0.55557 -0.83147 0
vn 0.92388 -0.38268 0
vn -0.38268 -0.92388 0
vn 0.83147 -0.55557 0
vn 0.83147 -0.55557 0
vn -0.19509 -0.98079 0
vn 0.70711 -0.70711 0
vn 0.70711 -0.70711 0
vn -0 -1 0
vn 0 -1 0
vn 0.55557 -0.83147 0
vn 0.55557 -0.83147 0
vn 0.19509 -0.98079 0
vn 0.38268 -0.92388 0
vn -0.19509 0.98079 0
vn -0.38268 0.92388 0
vn -0.38268 0.92388 0
vn -0.55557 0.83147 0
vn 0 1 0
vn -0 1 0
vn -0.70711 0.70711 0
vn -0.70711 0.70711 0
vn 0.19509 0.98079 0
vn -0.83147 0.55557 0
vn 0.38268 0.92388 0
vn 0.38268 0.92388 0
vn -0.92388 0.38268 0
vn 0.55557 0.83147 0
vn 0.70711 0.70711 0
vn 0.83147 0.55557 0
vn -0.92388 -0.38268 0
vn 0.98079 0.19509 0
vn -0.83147 -0.55557 0
vn 1 -0 0
vn 1 0 0
vn -0.70711 -0.70711 0
vn -0.70711 -0.70711 0
vn 0.98079 -0.19509 0
vn -0.55557 -0.83147 0
vn -0.38268 -0.92388 0
vn -0.38268 -0.92388 0
vn 0.83147 -0.55557 0
vn -0.19509 -0.98079 0
vn 0.70711 -0.70711 0
vn -0 -1 0
vn 0 -1 0
vn 0.55557 -0.83147 0
vn 0.19509 -0.98079 0
vn 0.38268 -0.92388 0
vn 0.38268 -0.92388 0
vn -0.70711 0.70711 -0
vn -0.83147 0.55557 -0
vn -0.83147 0.55557 -0
vn -0.92388 0.38268 0
vn -0.92388 0.38268 0
vn -0.98079 0.19509 0
vn 0.70711 0.70711 -0
vn 0.70711 0.70711 -0
vn -1 0 0
vn -1 -0 0
vn 0.83147 0.55557 -0
vn 0.83147 0.55557 -0
vn -0.98079 -0.19509 0
vn 0.83147 0.55557 0
vn 0.92388 0.38268 0
vn -0.92388 -0.38268 0
vn -0.92388 -0.38268 0
vn -0.83147 -0.55557 0
vn -0.83147 -0.55557 0
vn -0.70711 -0.70711 0
vn 0.92388 -0.38268 0
vn 0.83147 -0.55557 0
vn 0.83147 -0.55557 0
vn 0.70711 -0.70711 0
vn 0.70711 -0.70711 0
vn 0 -1 0
vn 0.83147 0.55557 -0
vn -0.19509 0.98079 0
vn -0.38268 0.92388 0
vn -0.55557 0.83147 0
vn 0 1 0
vn -0 1 0
vn -0.70711 0.70711 0
vn 0.19509 0.98079 0
vn -0.83147 0.55557 0
vn 0.38268 0.92388 0
vn 0.38268 0.92388 0
vn -0.92388 0.38268 0
vn 0.55557 0.83147 0
vn 0.70711 0.70711 0
vn -0.92388 -0.38268 0
vn -0.83147 -0.55557 0
vn -0.70711 -0.70711 0
vn -0.55557 -0.83147 0
vn -0.38268 -0.92388 0
vn 0.83147 -0.55557 0
vn -0.19509 -0.98079 0
vn 0.70711 -0.70711 0
vn -0 -1 0
vn 0 -1 0
vn 0.55557 -0.83147 0
vn 0.19509 -0.98079 0
vn 0.38268 -0.92388 0
vn 0.38268 -0.92388 0
vn -0.55557 0.83147 0
vn -0.70711 0.70711 0
vn -0.70711 -0.70711 0
vn -0.55557 -0.83147 0
f 1//1 2//1 3//1
f 4//2 1//2 3//2
f 5//3 6//3 7//3
f 8//3 9//3 10//3
f 11//3 12//3 13//3
f 13//3 14//3 15//3
f 15//3 16//3 17//3
f 18//3 19//3 15//3
f 15//3 14//3 20//3
f 21//3 11//3 10//3
f 22//3 23//3 10//3
f 24//3 25//3 10//3
f 26//3 27//3 28//3
f 28//3 29//3 30//3
f 30//3 31//3 32//3
f 32//3 33//3 34//3
f 34//3 35//3 36//3
f 37//3 38//3 39//3
f 40//3 26//3 10//3
f 41//3 42//3 10//3
f 43//3 44//3 45//3
f 46//3 44//3 43//3
f 47//3 48//3 49//3
f 50//3 51//3 52//3
f 53//3 54//3 55//3
f 56//3 57//3 58//3
f 59//3 60//3 61//3
f 61//3 62//3 63//3
f 64//3 65//3 66//3
f 67//3 68//3 69//3
f 70//3 71//3 72//3
f 73//3 74//3 75//3
f 76//3 77//3 78//3
f 78//3 79//3 62//3
f 80//3 81//3 82//3
f 82//3 83//3 84//3
f 84//3 85//3 86//3
f 86//3 87//3 88//3
f 89//3 87//3 86//3
f 86//3 90//3 91//3
f 91//3 92//3 93//3
f 94//3 95//3 96//3
f 97//3 80//3 98//3
f 98//3 99//3 100//3
f 101//3 102//3 103//3
f 104//3 105//3 106//3
f 106//3 107//3 108//3
f 108//3 109//3 110//3
f 110//3 111//3 112//3
f 112//3 113//3 114//3
f 115//3 116//3 10//3
f 10//3 9//3 117//3
f 118//3 119//3 120//3
f 121//3 122//3 123//3
f 7//3 8//3 10//3
f 18//3 15//3 20//3
f 124//3 21//3 10//3
f 22//3 10//3 25//3
f 125//3 24//3 10//3
f 39//3 40//3 10//3
f 41//3 10//3 2//3
f 1//3 43//3 45//3
f 46//3 43//3 126//3
f 56//3 58//3 127//3
f 59//3 61//3 63//3
f 78//3 62//3 61//3
f 61//3 98//3 80//3
f 128//3 89//3 86//3
f 96//3 97//3 98//3
f 98//3 100//3 129//3
f 114//3 115//3 10//3
f 5//3 7//3 10//3
f 18//3 20//3 130//3
f 124//3 10//3 23//3
f 131//3 22//3 25//3
f 125//3 10//3 26//3
f 37//3 39//3 10//3
f 132//3 41//3 2//3
f 1//3 45//3 46//3
f 46//3 126//3 47//3
f 133//3 56//3 127//3
f 127//3 59//3 63//3
f 78//3 61//3 80//3
f 128//3 86//3 91//3
f 94//3 96//3 98//3
f 98//3 129//3 101//3
f 112//3 114//3 10//3
f 5//3 10//3 11//3
f 130//3 124//3 23//3
f 131//3 25//3 134//3
f 135//3 125//3 26//3
f 37//3 10//3 42//3
f 46//3 47//3 49//3
f 127//3 63//3 64//3
f 76//3 78//3 80//3
f 94//3 98//3 101//3
f 110//3 112//3 10//3
f 136//3 5//3 11//3
f 130//3 23//3 131//3
f 131//3 134//3 137//3
f 138//3 135//3 26//3
f 139//3 37//3 42//3
f 46//3 49//3 140//3
f 133//3 127//3 64//3
f 141//3 65//3 64//3
f 64//3 142//3 76//3
f 76//3 80//3 82//3
f 108//3 110//3 10//3
f 123//3 136//3 11//3
f 18//3 130//3 131//3
f 131//3 137//3 143//3
f 138//3 26//3 28//3
f 36//3 139//3 42//3
f 46//3 140//3 50//3
f 144//3 133//3 64//3
f 75//3 141//3 64//3
f 64//3 76//3 82//3
f 108//3 10//3 117//3
f 121//3 123//3 11//3
f 18//3 131//3 143//3
f 143//3 138//3 28//3
f 34//3 36//3 42//3
f 145//3 144//3 64//3
f 73//3 75//3 64//3
f 64//3 82//3 84//3
f 106//3 108//3 117//3
f 121//3 11//3 13//3
f 18//3 143//3 28//3
f 34//3 42//3 132//3
f 146//3 145//3 64//3
f 73//3 64//3 84//3
f 104//3 106//3 117//3
f 147//3 121//3 13//3
f 18//3 28//3 30//3
f 32//3 34//3 132//3
f 148//3 146//3 64//3
f 73//3 84//3 86//3
f 149//3 104//3 117//3
f 150//3 147//3 13//3
f 18//3 30//3 32//3
f 55//3 148//3 64//3
f 151//3 73//3 86//3
f 103//3 149//3 117//3
f 150//3 13//3 15//3
f 18//3 32//3 132//3
f 53//3 55//3 64//3
f 72//3 151//3 86//3
f 101//3 103//3 117//3
f 18//3 132//3 2//3
f 53//3 64//3 66//3
f 72//3 86//3 88//3
f 101//3 117//3 118//3
f 152//3 18//3 2//3
f 153//3 53//3 66//3
f 70//3 72//3 88//3
f 101//3 118//3 120//3
f 154//3 155//3 120//3
f 120//3 156//3 150//3
f 157//3 152//3 2//3
f 158//3 153//3 66//3
f 70//3 88//3 159//3
f 94//3 101//3 120//3
f 154//3 120//3 150//3
f 157//3 2//3 1//3
f 160//3 158//3 66//3
f 161//3 70//3 159//3
f 94//3 120//3 155//3
f 154//3 150//3 15//3
f 52//3 160//3 66//3
f 69//3 161//3 159//3
f 162//3 94//3 155//3
f 163//3 154//3 15//3
f 50//3 52//3 66//3
f 69//3 159//3 164//3
f 93//3 162//3 155//3
f 163//3 15//3 17//3
f 50//3 66//3 165//3
f 69//3 164//3 166//3
f 91//3 93//3 155//3
f 163//3 17//3 167//3
f 50//3 165//3 168//3
f 91//3 155//3 163//3
f 163//3 167//3 157//3
f 50//3 168//3 67//3
f 128//3 91//3 163//3
f 46//3 50//3 67//3
f 128//3 163//3 157//3
f 46//3 67//3 69//3
f 169//3 128//3 157//3
f 46//3 69//3 166//3
f 169//3 157//3 1//3
f 1//3 46//3 166//3
f 166//3 169//3 1//3
f 2//1 170//1 3//1
f 171//2 4//2 3//2
f 172//3 4//3 10//3
f 10//3 116//3 173//3
f 173//3 174//3 175//3
f 175//3 176//3 177//3
f 178//3 179//3 180//3
f 181//3 100//3 99//3
f 182//3 61//3 60//3
f 127//3 58//3 183//3
f 183//3 184//3 185//3
f 186//3 187//3 188//3
f 189//3 190//3 191//3
f 191//3 43//3 1//3
f 1//3 4//3 192//3
f 192//3 193//3 194//3
f 195//3 196//3 197//3
f 197//3 198//3 199//3
f 199//3 200//3 201//3
f 202//3 201//3 200//3
f 203//3 204//3 205//3
f 205//3 206//3 192//3
f 192//3 4//3 207//3
f 208//3 209//3 210//3
f 210//3 211//3 212//3
f 212//3 213//3 214//3
f 215//3 216//3 217//3
f 218//3 217//3 216//3
f 219//3 220//3 221//3
f 222//3 223//3 224//3
f 224//3 225//3 226//3
f 226//3 227//3 228//3
f 229//3 230//3 207//3
f 231//3 232//3 233//3
f 234//3 235//3 236//3
f 236//3 237//3 238//3
f 238//3 239//3 240//3
f 241//3 242//3 243//3
f 244//3 245//3 246//3
f 247//3 248//3 249//3
f 249//3 250//3 251//3
f 251//3 252//3 253//3
f 254//3 255//3 256//3
f 256//3 257//3 258//3
f 258//3 259//3 260//3
f 260//3 261//3 262//3
f 263//3 264//3 265//3
f 266//3 267//3 268//3
f 269//3 270//3 271//3
f 272//3 273//3 274//3
f 275//3 276//3 252//3
f 252//3 251//3 277//3
f 278//3 279//3 280//3
f 280//3 281//3 282//3
f 283//3 284//3 285//3
f 286//3 287//3 240//3
f 240//3 239//3 288//3
f 289//3 290//3 291//3
f 291//3 292//3 231//3
f 231//3 4//3 293//3
f 294//3 295//3 296//3
f 296//3 297//3 298//3
f 298//3 299//3 300//3
f 300//3 301//3 302//3
f 303//3 304//3 305//3
f 306//3 307//3 308//3
f 309//3 310//3 311//3
f 312//3 313//3 314//3
f 314//3 315//3 303//3
f 316//3 301//3 300//3
f 317//3 318//3 319//3
f 320//3 321//3 322//3
f 322//3 323//3 324//3
f 324//3 325//3 326//3
f 327//3 328//3 293//3
f 4//3 329//3 330//3
f 331//3 332//3 333//3
f 334//3 335//3 336//3
f 337//3 338//3 339//3
f 339//3 340//3 341//3
f 341//3 342//3 343//3
f 344//3 342//3 341//3
f 345//3 346//3 347//3
f 347//3 348//3 349//3
f 350//3 351//3 352//3
f 353//3 354//3 329//3
f 329//3 4//3 172//3
f 355//3 356//3 357//3
f 358//3 359//3 360//3
f 360//3 361//3 362//3
f 362//3 363//3 364//3
f 365//3 366//3 367//3
f 367//3 368//3 369//3
f 370//3 371//3 372//3
f 373//3 374//3 375//3
f 376//3 377//3 378//3
f 378//3 379//3 380//3
f 380//3 381//3 382//3
f 383//3 381//3 380//3
f 384//3 385//3 386//3
f 386//3 387//3 388//3
f 389//3 390//3 391//3
f 392//3 393//3 368//3
f 368//3 367//3 394//3
f 395//3 396//3 397//3
f 398//3 399//3 400//3
f 400//3 401//3 402//3
f 402//3 403//3 357//3
f 357//3 356//3 404//3
f 404//3 172//3 10//3
f 405//3 181//3 99//3
f 182//3 60//3 406//3
f 189//3 191//3 1//3
f 1//3 192//3 194//3
f 197//3 199//3 201//3
f 202//3 200//3 407//3
f 205//3 192//3 207//3
f 408//3 215//3 217//3
f 218//3 216//3 409//3
f 229//3 207//3 4//3
f 4//3 231//3 233//3
f 236//3 238//3 240//3
f 249//3 251//3 253//3
f 275//3 252//3 277//3
f 286//3 240//3 288//3
f 291//3 231//3 293//3
f 298//3 300//3 302//3
f 314//3 303//3 316//3
f 316//3 300//3 410//3
f 327//3 293//3 4//3
f 4//3 330//3 331//3
f 339//3 341//3 343//3
f 344//3 341//3 411//3
f 353//3 329//3 172//3
f 355//3 357//3 412//3
f 365//3 367//3 369//3
f 378//3 380//3 382//3
f 383//3 380//3 413//3
f 392//3 368//3 394//3
f 402//3 357//3 404//3
f 180//3 405//3 99//3
f 182//3 406//3 414//3
f 415//3 189//3 1//3
f 1//3 194//3 416//3
f 197//3 201//3 417//3
f 202//3 407//3 418//3
f 205//3 207//3 419//3
f 420//3 408//3 217//3
f 218//3 409//3 219//3
f 229//3 4//3 233//3
f 236//3 240//3 421//3
f 247//3 249//3 253//3
f 422//3 275//3 277//3
f 423//3 286//3 288//3
f 291//3 293//3 424//3
f 312//3 314//3 316//3
f 316//3 410//3 425//3
f 426//3 327//3 4//3
f 4//3 331//3 333//3
f 337//3 339//3 343//3
f 344//3 411//3 427//3
f 428//3 353//3 172//3
f 355//3 412//3 358//3
f 429//3 365//3 369//3
f 376//3 378//3 382//3
f 383//3 413//3 430//3
f 431//3 392//3 394//3
f 400//3 402//3 404//3
f 178//3 180//3 99//3
f 188//3 415//3 1//3
f 1//3 416//3 195//3
f 195//3 197//3 417//3
f 202//3 418//3 203//3
f 205//3 419//3 208//3
f 214//3 420//3 217//3
f 218//3 219//3 221//3
f 432//3 229//3 233//3
f 236//3 421//3 241//3
f 433//3 247//3 253//3
f 274//3 422//3 277//3
f 285//3 423//3 288//3
f 291//3 424//3 294//3
f 316//3 425//3 434//3
f 435//3 426//3 4//3
f 4//3 333//3 436//3
f 437//3 337//3 343//3
f 344//3 427//3 438//3
f 428//3 172//3 439//3
f 355//3 358//3 360//3
f 440//3 429//3 369//3
f 441//3 376//3 382//3
f 383//3 430//3 442//3
f 391//3 431//3 394//3
f 398//3 400//3 404//3
f 443//3 178//3 99//3
f 188//3 1//3 195//3
f 205//3 208//3 210//3
f 214//3 217//3 444//3
f 218//3 221//3 445//3
f 446//3 432//3 233//3
f 236//3 241//3 243//3
f 447//3 433//3 253//3
f 272//3 274//3 277//3
f 283//3 285//3 288//3
f 291//3 294//3 296//3
f 316//3 434//3 448//3
f 449//3 435//3 4//3
f 4//3 436//3 334//3
f 450//3 437//3 343//3
f 344//3 438//3 345//3
f 352//3 428//3 439//3
f 355//3 360//3 362//3
f 451//3 440//3 369//3
f 452//3 441//3 382//3
f 383//3 442//3 384//3
f 389//3 391//3 394//3
f 453//3 398//3 404//3
f 454//3 443//3 99//3
f 186//3 188//3 195//3
f 203//3 205//3 210//3
f 218//3 445//3 222//3
f 446//3 233//3 455//3
f 234//3 236//3 243//3
f 456//3 447//3 253//3
f 457//3 272//3 277//3
f 458//3 283//3 288//3
f 289//3 291//3 296//3
f 316//3 448//3 459//3
f 460//3 449//3 4//3
f 461//3 450//3 343//3
f 344//3 345//3 347//3
f 350//3 352//3 439//3
f 355//3 362//3 364//3
f 462//3 451//3 369//3
f 463//3 452//3 382//3
f 383//3 384//3 386//3
f 464//3 389//3 394//3
f 397//3 453//3 404//3
f 454//3 99//3 465//3
f 466//3 186//3 195//3
f 203//3 210//3 212//3
f 218//3 222//3 224//3
f 446//3 455//3 234//3
f 234//3 243//3 467//3
f 246//3 456//3 253//3
f 271//3 457//3 277//3
f 282//3 458//3 288//3
f 289//3 296//3 298//3
f 316//3 459//3 317//3
f 468//3 460//3 4//3
f 336//3 461//3 343//3
f 344//3 347//3 349//3
f 469//3 350//3 439//3
f 470//3 462//3 369//3
f 375//3 463//3 382//3
f 383//3 386//3 388//3
f 388//3 464//3 394//3
f 397//3 404//3 10//3
f 471//3 454//3 465//3
f 185//3 466//3 195//3
f 202//3 203//3 212//3
f 218//3 224//3 226//3
f 472//3 446//3 234//3
f 234//3 467//3 244//3
f 246//3 253//3 254//3
f 271//3 277//3 473//3
f 282//3 288//3 474//3
f 289//3 298//3 302//3
f 316//3 317//3 319//3
f 326//3 468//3 4//3
f 349//3 469//3 439//3
f 364//3 470//3 369//3
f 388//3 394//3 475//3
f 395//3 397//3 10//3
f 476//3 471//3 465//3
f 183//3 185//3 195//3
f 202//3 212//3 214//3
f 218//3 226//3 228//3
f 477//3 472//3 234//3
f 234//3 244//3 246//3
f 246//3 254//3 256//3
f 271//3 473//3 478//3
f 282//3 474//3 289//3
f 316//3 319//3 479//3
f 324//3 326//3 4//3
f 344//3 349//3 439//3
f 364//3 369//3 370//3
f 388//3 475//3 480//3
f 481//3 395//3 10//3
f 183//3 195//3 417//3
f 202//3 214//3 444//3
f 482//3 477//3 234//3
f 246//3 256//3 258//3
f 271//3 478//3 278//3
f 282//3 289//3 302//3
f 302//3 316//3 303//3
f 312//3 316//3 479//3
f 322//3 324//3 4//3
f 344//3 439//3 355//3
f 364//3 370//3 372//3
f 388//3 480//3 483//3
f 483//3 481//3 10//3
f 183//3 417//3 484//3
f 202//3 444//3 218//3
f 228//3 482//3 234//3
f 246//3 258//3 260//3
f 271//3 278//3 280//3
f 280//3 282//3 302//3
f 302//3 303//3 305//3
f 312//3 479//3 320//3
f 322//3 4//3 334//3
f 344//3 355//3 364//3
f 364//3 372//3 485//3
f 383//3 388//3 483//3
f 127//3 183//3 484//3
f 218//3 228//3 234//3
f 271//3 280//3 302//3
f 302//3 305//3 306//3
f 320//3 322//3 334//3
f 364//3 485//3 373//3
f 383//3 483//3 10//3
f 414//3 127//3 484//3
f 218//3 234//3 246//3
f 271//3 302//3 306//3
f 320//3 334//3 336//3
f 344//3 364//3 373//3
f 382//3 383//3 10//3
f 414//3 484//3 202//3
f 218//3 246//3 260//3
f 269//3 271//3 306//3
f 312//3 320//3 336//3
f 344//3 373//3 375//3
f 382//3 10//3 173//3
f 414//3 202//3 218//3
f 269//3 306//3 308//3
f 312//3 336//3 343//3
f 344//3 375//3 382//3
f 382//3 173//3 175//3
f 414//3 218//3 260//3
f 486//3 269//3 308//3
f 487//3 312//3 343//3
f 382//3 175//3 177//3
f 414//3 260//3 262//3
f 268//3 486//3 308//3
f 311//3 487//3 343//3
f 344//3 382//3 177//3
f 182//3 414//3 262//3
f 266//3 268//3 308//3
f 309//3 311//3 343//3
f 344//3 177//3 488//3
f 182//3 262//3 489//3
f 266//3 308//3 309//3
f 344//3 488//3 476//3
f 465//3 182//3 489//3
f 490//3 266//3 309//3
f 343//3 344//3 476//3
f 465//3 489//3 491//3
f 265//3 490//3 309//3
f 343//3 476//3 465//3
f 465//3 491//3 263//3
f 265//3 309//3 343//3
f 343//3 465//3 263//3
f 263//3 265//3 343//3
f 10//4 492//4 2//4
f 492//4 170//4 2//4
f 493//5 494//5 495//5
f 496//5 497//5 498//5
f 499//5 500//5 501//5
f 502//5 503//5 504//5
f 505//5 506//5 507//5
f 508//5 509//5 510//5
f 510//5 511//5 512//5
f 512//5 3//5 513//5
f 514//5 515//5 516//5
f 517//5 518//5 519//5
f 520//5 521//5 522//5
f 522//5 523//5 524//5
f 525//5 526//5 527//5
f 527//5 528//5 529//5
f 529//5 530//5 531//5
f 532//5 533//5 534//5
f 535//5 534//5 533//5
f 536//5 537//5 538//5
f 538//5 514//5 539//5
f 539//5 513//5 3//5
f 3//5 540//5 541//5
f 542//5 543//5 544//5
f 545//5 540//5 3//5
f 170//5 546//5 547//5
f 547//5 548//5 549//5
f 550//5 551//5 552//5
f 553//5 554//5 555//5
f 556//5 557//5 558//5
f 558//5 559//5 560//5
f 561//5 562//5 563//5
f 563//5 564//5 171//5
f 171//5 3//5 565//5
f 566//5 567//5 568//5
f 568//5 569//5 570//5
f 570//5 571//5 572//5
f 573//5 574//5 575//5
f 576//5 577//5 578//5
f 578//5 579//5 580//5
f 580//5 581//5 582//5
f 583//5 584//5 565//5
f 585//5 586//5 587//5
f 588//5 589//5 590//5
f 591//5 592//5 593//5
f 594//5 595//5 596//5
f 596//5 597//5 585//5
f 585//5 3//5 598//5
f 599//5 600//5 601//5
f 601//5 602//5 603//5
f 603//5 604//5 605//5
f 606//5 607//5 608//5
f 609//5 610//5 611//5
f 611//5 612//5 613//5
f 614//5 612//5 611//5
f 611//5 615//5 616//5
f 616//5 617//5 618//5
f 619//5 620//5 598//5
f 621//5 622//5 623//5
f 624//5 625//5 626//5
f 627//5 628//5 629//5
f 630//5 631//5 632//5
f 632//5 621//5 3//5
f 3//5 633//5 634//5
f 635//5 636//5 637//5
f 633//5 3//5 512//5
f 638//5 639//5 493//5
f 510//5 512//5 513//5
f 517//5 519//5 520//5
f 640//5 532//5 534//5
f 535//5 533//5 641//5
f 536//5 538//5 539//5
f 539//5 3//5 541//5
f 542//5 544//5 642//5
f 545//5 3//5 170//5
f 547//5 549//5 643//5
f 171//5 565//5 644//5
f 583//5 565//5 3//5
f 3//5 585//5 587//5
f 596//5 585//5 598//5
f 609//5 611//5 613//5
f 614//5 611//5 616//5
f 619//5 598//5 3//5
f 3//5 621//5 623//5
f 630//5 632//5 3//5
f 645//5 635//5 637//5
f 633//5 512//5 646//5
f 508//5 510//5 513//5
f 647//5 539//5 514//5
f 517//5 520//5 522//5
f 640//5 534//5 648//5
f 535//5 641//5 536//5
f 536//5 539//5 541//5
f 649//5 545//5 170//5
f 547//5 643//5 650//5
f 171//5 644//5 566//5
f 583//5 3//5 587//5
f 596//5 598//5 651//5
f 652//5 609//5 613//5
f 614//5 616//5 618//5
f 653//5 619//5 3//5
f 629//5 630//5 3//5
f 633//5 646//5 654//5
f 655//5 508//5 513//5
f 647//5 514//5 516//5
f 535//5 536//5 541//5
f 649//5 170//5 547//5
f 547//5 650//5 550//5
f 171//5 566//5 568//5
f 656//5 583//5 587//5
f 596//5 651//5 599//5
f 608//5 652//5 613//5
f 653//5 3//5 623//5
f 629//5 3//5 634//5
f 633//5 654//5 657//5
f 658//5 655//5 513//5
f 647//5 516//5 517//5
f 659//5 518//5 517//5
f 517//5 660//5 640//5
f 535//5 541//5 542//5
f 642//5 649//5 547//5
f 171//5 568//5 570//5
f 661//5 656//5 587//5
f 596//5 599//5 601//5
f 606//5 608//5 613//5
f 662//5 653//5 623//5
f 627//5 629//5 634//5
f 633//5 657//5 638//5
f 658//5 513//5 647//5
f 647//5 517//5 522//5
f 531//5 659//5 517//5
f 517//5 640//5 648//5
f 535//5 542//5 642//5
f 171//5 570//5 572//5
f 663//5 661//5 587//5
f 596//5 601//5 603//5
f 664//5 606//5 613//5
f 665//5 662//5 623//5
f 626//5 627//5 634//5
f 633//5 638//5 493//5
f 666//5 658//5 647//5
f 529//5 531//5 517//5
f 535//5 642//5 547//5
f 171//5 572//5 667//5
f 668//5 663//5 587//5
f 594//5 596//5 603//5
f 669//5 664//5 613//5
f 670//5 665//5 623//5
f 626//5 634//5 671//5
f 637//5 633//5 493//5
f 507//5 666//5 647//5
f 529//5 517//5 648//5
f 648//5 535//5 547//5
f 171//5 667//5 672//5
f 673//5 668//5 587//5
f 594//5 603//5 605//5
f 674//5 669//5 613//5
f 675//5 670//5 623//5
f 671//5 637//5 636//5
f 637//5 493//5 495//5
f 505//5 507//5 647//5
f 527//5 529//5 648//5
f 171//5 672//5 676//5
f 673//5 587//5 588//5
f 594//5 605//5 677//5
f 678//5 674//5 613//5
f 675//5 623//5 624//5
f 671//5 636//5 679//5
f 645//5 637//5 495//5
f 505//5 647//5 522//5
f 527//5 648//5 547//5
f 171//5 676//5 680//5
f 582//5 673//5 588//5
f 594//5 677//5 678//5
f 618//5 675//5 624//5
f 626//5 671//5 679//5
f 645//5 495//5 681//5
f 682//5 505//5 522//5
f 525//5 527//5 547//5
f 563//5 171//5 680//5
f 580//5 582//5 588//5
f 594//5 678//5 613//5
f 618//5 624//5 626//5
f 626//5 679//5 683//5
f 645//5 681//5 496//5
f 504//5 682//5 522//5
f 684//5 525//5 547//5
f 561//5 563//5 680//5
f 578//5 580//5 588//5
f 685//5 594//5 613//5
f 614//5 618//5 626//5
f 626//5 683//5 686//5
f 645//5 496//5 498//5
f 502//5 504//5 522//5
f 524//5 684//5 547//5
f 687//5 561//5 680//5
f 578//5 588//5 590//5
f 593//5 685//5 613//5
f 614//5 626//5 686//5
f 645//5 498//5 688//5
f 689//5 502//5 522//5
f 690//5 687//5 680//5
f 576//5 578//5 590//5
f 613//5 614//5 686//5
f 645//5 688//5 499//5
f 501//5 689//5 522//5
f 691//5 690//5 680//5
f 692//5 576//5 590//5
f 613//5 686//5 693//5
f 645//5 499//5 501//5
f 560//5 691//5 680//5
f 575//5 692//5 590//5
f 645//5 501//5 522//5
f 558//5 560//5 680//5
f 575//5 590//5 591//5
f 645//5 522//5 524//5
f 556//5 558//5 680//5
f 645//5 524//5 547//5
f 556//5 680//5 694//5
f 695//5 645//5 547//5
f 556//5 694//5 573//5
f 693//5 695//5 547//5
f 556//5 573//5 575//5
f 693//5 547//5 550//5
f 556//5 575//5 591//5
f 613//5 693//5 550//5
f 696//5 556//5 591//5
f 613//5 550//5 552//5
f 697//5 696//5 591//5
f 613//5 552//5 698//5
f 697//5 591//5 593//5
f 613//5 698//5 553//5
f 699//5 697//5 593//5
f 613//5 553//5 555//5
f 555//5 699//5 593//5
f 593//5 613//5 555//5
f 171//6 492//6 4//6
f 492//6 10//6 4//6
f 700//5 549//5 548//5
f 548//5 701//5 702//5
f 702//5 703//5 704//5
f 704//5 705//5 706//5
f 707//5 708//5 709//5
f 709//5 710//5 711//5
f 712//5 713//5 714//5
f 714//5 715//5 716//5
f 717//5 718//5 719//5
f 720//5 721//5 722//5
f 723//5 724//5 725//5
f 726//5 727//5 705//5
f 728//5 729//5 730//5
f 731//5 732//5 733//5
f 734//5 735//5 736//5
f 737//5 738//5 739//5
f 740//5 741//5 742//5
f 742//5 743//5 744//5
f 745//5 746//5 747//5
f 747//5 748//5 749//5
f 749//5 750//5 751//5
f 752//5 753//5 754//5
f 755//5 756//5 757//5
f 758//5 759//5 760//5
f 760//5 761//5 762//5
f 762//5 763//5 764//5
f 765//5 766//5 767//5
f 767//5 768//5 769//5
f 769//5 770//5 751//5
f 751//5 750//5 771//5
f 772//5 773//5 774//5
f 774//5 775//5 743//5
f 743//5 742//5 776//5
f 777//5 778//5 779//5
f 780//5 781//5 782//5
f 782//5 783//5 784//5
f 784//5 785//5 728//5
f 786//5 701//5 548//5
f 548//5 787//5 788//5
f 788//5 789//5 790//5
f 791//5 787//5 548//5
f 792//5 793//5 794//5
f 795//5 796//5 797//5
f 798//5 799//5 800//5
f 801//5 802//5 803//5
f 804//5 805//5 806//5
f 807//5 808//5 809//5
f 810//5 811//5 812//5
f 813//5 814//5 815//5
f 815//5 816//5 817//5
f 817//5 818//5 819//5
f 820//5 821//5 822//5
f 823//5 824//5 825//5
f 825//5 826//5 827//5
f 827//5 828//5 809//5
f 809//5 808//5 829//5
f 830//5 831//5 832//5
f 833//5 834//5 835//5
f 836//5 837//5 838//5
f 839//5 840//5 841//5
f 841//5 842//5 843//5
f 844//5 845//5 846//5
f 846//5 847//5 848//5
f 849//5 850//5 851//5
f 852//5 853//5 854//5
f 855//5 830//5 856//5
f 856//5 857//5 858//5
f 858//5 859//5 860//5
f 861//5 862//5 863//5
f 864//5 548//5 865//5
f 866//5 546//5 170//5
f 171//5 564//5 867//5
f 868//5 869//5 870//5
f 700//5 548//5 702//5
f 704//5 706//5 871//5
f 872//5 703//5 702//5
f 702//5 728//5 730//5
f 740//5 742//5 744//5
f 747//5 749//5 751//5
f 769//5 751//5 771//5
f 774//5 743//5 776//5
f 784//5 728//5 702//5
f 786//5 548//5 788//5
f 788//5 790//5 873//5
f 548//5 864//5 874//5
f 807//5 809//5 875//5
f 827//5 809//5 829//5
f 830//5 832//5 833//5
f 852//5 854//5 855//5
f 858//5 860//5 861//5
f 863//5 864//5 865//5
f 865//5 866//5 170//5
f 171//5 867//5 876//5
f 877//5 700//5 702//5
f 704//5 871//5 878//5
f 702//5 730//5 879//5
f 880//5 740//5 744//5
f 747//5 751//5 881//5
f 767//5 769//5 771//5
f 774//5 776//5 777//5
f 782//5 784//5 702//5
f 702//5 786//5 788//5
f 548//5 874//5 882//5
f 807//5 875//5 883//5
f 825//5 827//5 829//5
f 830//5 833//5 835//5
f 884//5 852//5 855//5
f 863//5 865//5 170//5
f 171//5 876//5 885//5
f 886//5 877//5 702//5
f 704//5 878//5 707//5
f 872//5 702//5 879//5
f 739//5 880//5 744//5
f 747//5 881//5 887//5
f 765//5 767//5 771//5
f 774//5 777//5 779//5
f 782//5 702//5 788//5
f 548//5 882//5 792//5
f 807//5 883//5 888//5
f 823//5 825//5 829//5
f 830//5 835//5 889//5
f 851//5 884//5 855//5
f 861//5 863//5 170//5
f 171//5 885//5 868//5
f 870//5 886//5 702//5
f 704//5 707//5 709//5
f 872//5 879//5 890//5
f 737//5 739//5 744//5
f 747//5 887//5 891//5
f 892//5 765//5 771//5
f 772//5 774//5 779//5
f 780//5 782//5 788//5
f 791//5 548//5 792//5
f 797//5 861//5 860//5
f 807//5 888//5 893//5
f 894//5 823//5 829//5
f 830//5 889//5 836//5
f 849//5 851//5 855//5
f 858//5 861//5 170//5
f 171//5 868//5 870//5
f 870//5 702//5 704//5
f 704//5 709//5 711//5
f 872//5 890//5 731//5
f 895//5 737//5 744//5
f 747//5 891//5 896//5
f 764//5 892//5 771//5
f 897//5 780//5 788//5
f 791//5 792//5 794//5
f 795//5 797//5 860//5
f 806//5 807//5 893//5
f 822//5 894//5 829//5
f 830//5 836//5 838//5
f 898//5 849//5 855//5
f 856//5 858//5 170//5
f 171//5 870//5 704//5
f 726//5 705//5 704//5
f 872//5 731//5 733//5
f 736//5 895//5 744//5
f 747//5 896//5 899//5
f 764//5 771//5 900//5
f 779//5 897//5 788//5
f 791//5 794//5 795//5
f 795//5 860//5 901//5
f 806//5 893//5 902//5
f 822//5 829//5 856//5
f 848//5 898//5 855//5
f 855//5 856//5 170//5
f 171//5 704//5 711//5
f 903//5 726//5 704//5
f 872//5 733//5 904//5
f 734//5 736//5 744//5
f 747//5 899//5 752//5
f 764//5 900//5 772//5
f 772//5 779//5 788//5
f 791//5 795//5 901//5
f 806//5 902//5 810//5
f 820//5 822//5 856//5
f 855//5 170//5 492//5
f 171//5 711//5 905//5
f 725//5 903//5 704//5
f 872//5 904//5 734//5
f 734//5 744//5 906//5
f 747//5 752//5 754//5
f 764//5 772//5 788//5
f 791//5 901//5 907//5
f 806//5 810//5 812//5
f 820//5 856//5 830//5
f 848//5 855//5 492//5
f 171//5 905//5 908//5
f 725//5 704//5 872//5
f 872//5 734//5 906//5
f 762//5 764//5 788//5
f 806//5 812//5 909//5
f 910//5 820//5 830//5
f 848//5 492//5 171//5
f 171//5 908//5 911//5
f 723//5 725//5 872//5
f 872//5 906//5 912//5
f 760//5 762//5 788//5
f 806//5 909//5 813//5
f 913//5 910//5 830//5
f 846//5 848//5 171//5
f 171//5 911//5 712//5
f 914//5 723//5 872//5
f 872//5 912//5 745//5
f 760//5 788//5 873//5
f 915//5 913//5 830//5
f 844//5 846//5 171//5
f 171//5 712//5 714//5
f 914//5 872//5 745//5
f 916//5 915//5 830//5
f 171//5 714//5 716//5
f 914//5 745//5 747//5
f 917//5 916//5 830//5
f 171//5 716//5 918//5
f 914//5 747//5 754//5
f 819//5 917//5 830//5
f 171//5 918//5 717//5
f 914//5 754//5 919//5
f 817//5 819//5 830//5
f 914//5 919//5 920//5
f 817//5 830//5 838//5
f 914//5 920//5 921//5
f 815//5 817//5 838//5
f 914//5 921//5 922//5
f 923//5 922//5 924//5
f 923//5 924//5 755//5
f 923//5 755//5 757//5
f 925//5 926//5 171//5
f 925//5 171//5 717//5
f 927//5 925//5 717//5
f 927//5 717//5 719//5
f 722//5 927//5 719//5
f 171//5 926//5 757//5
f 844//5 171//5 757//5
f 928//5 844//5 757//5
f 929//5 928//5 757//5
f 930//5 929//5 757//5
f 843//5 930//5 757//5
f 843//5 757//5 931//5
f 843//5 931//5 758//5
f 841//5 843//5 758//5
f 839//5 841//5 758//5
f 932//5 839//5 758//5
f 933//5 932//5 758//5
f 933//5 758//5 760//5
f 933//5 760//5 873//5
f 934//5 933//5 873//5
f 838//5 934//5 873//5
f 838//5 873//5 791//5
f 815//5 838//5 791//5
f 813//5 815//5 791//5
f 806//5 813//5 791//5
f 804//5 806//5 791//5
f 935//5 799//5 798//5
f 791//5 907//5 800//5
f 935//5 798//5 936//5
f 804//5 791//5 800//5
f 800//5 935//5 936//5
f 803//5 804//5 800//5
f 800//5 936//5 801//5
f 801//5 803//5 800//5
f 798//5 800//5 907//5
f 922//5 923//5 937//5
f 937//5 914//5 922//5
f 906//7 744//7 307//7
f 307//7 306//7 906//7
f 744//8 743//8 308//8
f 308//8 307//8 744//8
f 912//8 906//8 306//8
f 306//8 938//8 912//8
f 939//7 308//7 743//7
f 743//7 775//7 939//7
f 938//8 305//8 745//8
f 745//8 912//8 938//8
f 775//7 774//7 309//7
f 309//7 939//7 775//7
f 305//9 304//9 746//9
f 746//9 745//9 305//9
f 310//10 309//10 774//10
f 774//10 773//10 310//10
f 747//8 746//8 304//8
f 304//8 303//8 747//8
f 773//7 772//7 311//7
f 311//7 310//7 773//7
f 748//9 747//9 303//9
f 303//9 315//9 748//9
f 487//10 311//10 772//10
f 772//10 900//10 487//10
f 315//9 314//9 749//9
f 749//9 748//9 315//9
f 900//10 771//10 312//10
f 312//10 487//10 900//10
f 314//10 313//10 750//10
f 750//10 749//10 314//10
f 313//9 312//9 771//9
f 771//9 750//9 313//9
f 538//7 537//7 71//7
f 71//7 70//7 538//7
f 537//8 536//8 72//8
f 72//8 71//8 537//8
f 940//8 538//8 70//8
f 70//8 161//8 940//8
f 151//7 72//7 536//7
f 536//7 941//7 151//7
f 161//8 69//8 514//8
f 514//8 940//8 161//8
f 941//7 641//7 73//7
f 73//7 151//7 941//7
f 69//9 68//9 515//9
f 515//9 514//9 69//9
f 74//10 73//10 641//10
f 641//10 533//10 74//10
f 516//8 515//8 68//8
f 68//8 67//8 516//8
f 533//7 532//7 75//7
f 75//7 74//7 533//7
f 942//9 516//9 67//9
f 67//9 168//9 942//9
f 141//10 75//10 532//10
f 532//10 943//10 141//10
f 168//9 165//9 517//9
f 517//9 942//9 168//9
f 943//10 640//10 65//10
f 65//10 141//10 943//10
f 165//10 66//10 660//10
f 660//10 517//10 165//10
f 66//9 65//9 640//9
f 640//9 660//9 66//9
f 882//7 874//7 35//7
f 35//7 34//7 882//7
f 874//8 864//8 36//8
f 36//8 35//8 874//8
f 944//8 882//8 34//8
f 34//8 33//8 944//8
f 139//7 36//7 864//7
f 864//7 945//7 139//7
f 33//8 32//8 792//8
f 792//8 944//8 33//8
f 945//7 863//7 37//7
f 37//7 139//7 945//7
f 32//9 31//9 793//9
f 793//9 792//9 32//9
f 38//10 37//10 863//10
f 863//10 862//10 38//10
f 794//8 793//8 31//8
f 31//8 30//8 794//8
f 862//7 861//7 39//7
f 39//7 38//7 862//7
f 946//9 794//9 30//9
f 30//9 29//9 946//9
f 40//10 39//10 861//10
f 861//10 947//10 40//10
f 29//9 28//9 795//9
f 795//9 946//9 29//9
f 947//10 797//10 26//10
f 26//10 40//10 947//10
f 28//10 27//10 796//10
f 796//10 795//10 28//10
f 27//9 26//9 797//9
f 797//9 796//9 27//9
f 803//7 802//7 122//7
f 122//7 121//7 803//7
f 802//8 801//8 123//8
f 123//8 122//8 802//8
f 948//8 803//8 121//8
f 121//8 147//8 948//8
f 136//7 123//7 801//7
f 801//7 936//7 136//7
f 147//8 150//8 804//8
f 804//8 948//8 147//8
f 936//7 858//7 5//7
f 5//7 136//7 936//7
f 150//9 156//9 805//9
f 805//9 804//9 150//9
f 6//10 5//10 858//10
f 858//10 857//10 6//10
f 806//8 805//8 156//8
f 156//8 120//8 806//8
f 857//7 856//7 7//7
f 7//7 6//7 857//7
f 949//9 806//9 120//9
f 120//9 119//9 949//9
f 8//10 7//10 856//10
f 856//10 950//10 8//10
f 119//9 118//9 807//9
f 807//9 949//9 119//9
f 950//10 829//10 9//10
f 9//10 8//10 950//10
f 118//10 117//10 808//10
f 808//10 807//10 118//10
f 117//9 9//9 829//9
f 829//9 808//9 117//9
f 632//7 631//7 196//7
f 196//7 195//7 632//7
f 631//8 630//8 197//8
f 197//8 196//8 631//8
f 951//8 632//8 195//8
f 195//8 416//8 951//8
f 198//7 197//7 630//7
f 630//7 952//7 198//7
f 416//8 194//8 621//8
f 621//8 951//8 416//8
f 952//7 629//7 199//7
f 199//7 198//7 952//7
f 194//9 193//9 622//9
f 622//9 621//9 194//9
f 200//10 199//10 629//10
f 629//10 628//10 200//10
f 623//8 622//8 193//8
f 193//8 192//8 623//8
f 628//7 627//7 407//7
f 407//7 200//7 628//7
f 953//9 623//9 192//9
f 192//9 206//9 953//9
f 418//10 407//10 627//10
f 627//10 954//10 418//10
f 206//9 205//9 624//9
f 624//9 953//9 206//9
f 954//10 626//10 203//10
f 203//10 418//10 954//10
f 205//10 204//10 625//10
f 625//10 624//10 205//10
f 204//9 203//9 626//9
f 626//9 625//9 204//9
f 596//7 595//7 235//7
f 235//7 234//7 596//7
f 595//8 594//8 236//8
f 236//8 235//8 595//8
f 597//8 596//8 234//8
f 234//8 455//8 597//8
f 237//7 236//7 594//7
f 594//7 685//7 237//7
f 455//8 233//8 585//8
f 585//8 597//8 455//8
f 685//7 593//7 238//7
f 238//7 237//7 685//7
f 233//9 232//9 586//9
f 586//9 585//9 233//9
f 239//10 238//10 593//10
f 593//10 592//10 239//10
f 587//8 586//8 232//8
f 232//8 231//8 587//8
f 592//7 591//7 288//7
f 288//7 239//7 592//7
f 955//9 587//9 231//9
f 231//9 292//9 955//9
f 474//10 288//10 591//10
f 591//10 956//10 474//10
f 292//9 291//9 588//9
f 588//9 955//9 292//9
f 956//10 590//10 289//10
f 289//10 474//10 956//10
f 291//10 290//10 589//10
f 589//10 588//10 291//10
f 290//9 289//9 590//9
f 590//9 589//9 290//9
f 531//7 530//7 92//7
f 92//7 91//7 531//7
f 530//8 529//8 93//8
f 93//8 92//8 530//8
f 659//8 531//8 91//8
f 91//8 90//8 659//8
f 162//7 93//7 529//7
f 529//7 528//7 162//7
f 90//8 86//8 518//8
f 518//8 659//8 90//8
f 528//7 527//7 94//7
f 94//7 162//7 528//7
f 86//9 85//9 519//9
f 519//9 518//9 86//9
f 95//10 94//10 527//10
f 527//10 526//10 95//10
f 520//8 519//8 85//8
f 85//8 84//8 520//8
f 526//7 525//7 96//7
f 96//7 95//7 526//7
f 521//9 520//9 84//9
f 84//9 83//9 521//9
f 97//10 96//10 525//10
f 525//10 684//10 97//10
f 83//9 82//9 522//9
f 522//9 521//9 83//9
f 684//10 524//10 80//10
f 80//10 97//10 684//10
f 82//10 81//10 523//10
f 523//10 522//10 82//10
f 81//9 80//9 524//9
f 524//9 523//9 81//9
f 957//6 543//6 128//6
f 128//6 169//6 957//6
f 543//2 958//2 89//2
f 89//2 128//2 543//2
f 540//6 957//6 169//6
f 169//6 166//6 540//6
f 958//2 542//2 87//2
f 87//2 89//2 958//2
f 166//4 164//4 959//4
f 959//4 540//4 166//4
f 88//1 87//1 542//1
f 542//1 960//1 88//1
f 164//4 159//4 541//4
f 541//4 959//4 164//4
f 159//1 88//1 960//1
f 960//1 541//1 159//1
f 961//6 545//6 18//6
f 18//6 152//6 961//6
f 545//2 962//2 19//2
f 19//2 18//2 545//2
f 544//6 961//6 152//6
f 152//6 157//6 544//6
f 962//2 649//2 15//2
f 15//2 19//2 962//2
f 157//4 167//4 963//4
f 963//4 544//4 157//4
f 16//1 15//1 649//1
f 649//1 964//1 16//1
f 167//4 17//4 642//4
f 642//4 963//4 167//4
f 17//1 16//1 964//1
f 964//1 642//1 17//1
f 965//6 966//6 124//6
f 124//6 130//6 965//6
f 966//2 967//2 21//2
f 21//2 124//2 966//2
f 968//6 965//6 130//6
f 130//6 20//6 968//6
f 967//2 969//2 11//2
f 11//2 21//2 967//2
f 20//4 14//4 970//4
f 970//4 968//4 20//4
f 12//1 11//1 969//1
f 969//1 971//1 12//1
f 14//4 13//4 972//4
f 972//4 970//4 14//4
f 13//1 12//1 971//1
f 971//1 972//1 13//1
f 927//6 937//6 355//6
f 355//6 973//6 927//6
f 937//2 974//2 356//2
f 356//2 355//2 937//2
f 925//6 927//6 973//6
f 973//6 439//6 925//6
f 974//2 923//2 404//2
f 404//2 356//2 974//2
f 439//4 975//4 976//4
f 976//4 925//4 439//4
f 977//1 404//1 923//1
f 923//1 978//1 977//1
f 975//4 172//4 926//4
f 926//4 976//4 975//4
f 172//1 977//1 978//1
f 978//1 926//1 172//1
f 979//6 860//6 125//6
f 125//6 135//6 979//6
f 860//2 859//2 24//2
f 24//2 125//2 860//2
f 901//6 979//6 135//6
f 135//6 138//6 901//6
f 859//2 798//2 25//2
f 25//2 24//2 859//2
f 138//4 143//4 980//4
f 980//4 901//4 138//4
f 134//1 25//1 798//1
f 798//1 981//1 134//1
f 143//4 137//4 907//4
f 907//4 980//4 143//4
f 137//1 134//1 981//1
f 981//1 907//1 137//1
f 982//6 637//6 484//6
f 484//6 983//6 982//6
f 637//2 984//2 985//2
f 985//2 484//2 637//2
f 633//6 982//6 983//6
f 983//6 417//6 633//6
f 984//2 671//2 202//2
f 202//2 985//2 984//2
f 417//4 986//4 987//4
f 987//4 633//4 417//4
f 988//1 202//1 671//1
f 671//1 989//1 988//1
f 986//4 201//4 634//4
f 634//4 987//4 986//4
f 201//1 988//1 989//1
f 989//1 634//1 201//1
f 635//6 645//6 78//6
f 78//6 77//6 635//6
f 645//2 695//2 79//2
f 79//2 78//2 645//2
f 636//6 635//6 77//6
f 77//6 76//6 636//6
f 695//2 693//2 62//2
f 62//2 79//2 695//2
f 76//4 142//4 679//4
f 679//4 636//4 76//4
f 63//1 62//1 693//1
f 693//1 686//1 63//1
f 142//4 64//4 683//4
f 683//4 679//4 142//4
f 64//1 63//1 686//1
f 686//1 683//1 64//1
f 513//11 539//11 46//11
f 46//11 45//11 513//11
f 539//12 647//12 44//12
f 44//12 46//12 539//12
f 647//13 513//13 45//13
f 45//13 44//13 647//13
f 546//11 866//11 41//11
f 41//11 132//11 547//11
f 547//11 546//11 41//11
f 866//12 865//12 42//12
f 42//12 41//12 866//12
f 548//13 547//13 132//13
f 132//13 42//13 865//13
f 865//13 548//13 132//13
f 534//11 535//11 154//11
f 154//11 163//11 534//11
f 535//12 648//12 155//12
f 155//12 154//12 535//12
f 648//13 534//13 163//13
f 163//13 155//13 648//13
f 831//11 830//11 382//11
f 382//11 381//11 831//11
f 830//12 855//12 383//12
f 383//12 382//12 830//12
f 855//13 831//13 381//13
f 381//13 383//13 855//13
f 873//11 790//11 343//11
f 343//11 342//11 873//11
f 790//12 791//12 344//12
f 344//12 343//12 790//12
f 791//13 873//13 342//13
f 342//13 344//13 791//13
f 788//11 787//11 98//11
f 61//11 182//11 788//11
f 788//11 98//11 61//11
f 787//12 789//12 465//12
f 99//12 98//12 787//12
f 787//12 465//12 99//12
f 789//13 788//13 182//13
f 182//13 465//13 789//13
f 704//11 703//11 302//11
f 302//11 301//11 704//11
f 703//12 872//12 316//12
f 316//12 302//12 703//12
f 872//13 704//13 301//13
f 301//13 316//13 872//13
f 800//11 799//11 22//11
f 22//11 131//11 800//11
f 799//12 935//12 23//12
f 23//12 22//12 799//12
f 935//13 800//13 131//13
f 131//13 23//13 935//13
f 612//11 614//11 444//11
f 444//11 217//11 612//11
f 614//12 613//12 218//12
f 218//12 444//12 614//12
f 613//13 612//13 217//13
f 217//13 218//13 613//13
f 702//11 701//11 59//11
f 127//11 414//11 702//11
f 702//11 59//11 127//11
f 701//12 786//12 406//12
f 60//12 59//12 701//12
f 701//12 406//12 60//12
f 786//13 702//13 414//13
f 414//13 406//13 786//13
f 366//14 365//15 765//15
f 765//15 892//14 366//14
f 365//15 429//16 766//16
f 766//16 765//15 365//15
f 367//17 366//14 892//14
f 892//14 764//18 367//17
f 429//16 440//19 767//20
f 767//20 766//16 429//16
f 394//21 367//17 764//18
f 764//18 763//21 394//21
f 440//19 451//22 768//22
f 768//22 767//20 440//19
f 475//23 394//21 763//21
f 763//21 762//23 475//23
f 451//22 462//24 769//24
f 769//24 768//22 451//22
f 480//25 475//23 762//23
f 762//23 761//25 480//25
f 462//24 470//26 770//27
f 770//27 769//24 462//24
f 483//28 480//25 761//25
f 761//25 760//28 483//28
f 470//26 364//29 751//30
f 751//30 770//27 470//26
f 481//31 483//28 760//28
f 760//28 759//31 481//31
f 364//29 363//32 881//33
f 881//33 751//30 364//29
f 395//34 481//31 759//31
f 759//31 758//35 395//34
f 363//32 362//36 887//36
f 887//36 881//33 363//32
f 396//37 395//34 758//35
f 758//35 931//38 396//37
f 362//36 361//39 891//39
f 891//39 887//36 362//36
f 397//40 396//37 931//38
f 931//38 757//41 397//40
f 361//39 360//42 896//43
f 896//43 891//39 361//39
f 453//44 397//40 757//41
f 757//41 756//45 453//44
f 360//42 359//46 899//46
f 899//46 896//43 360//42
f 398//47 453//44 756//45
f 756//45 755//48 398//47
f 359//46 358//49 752//49
f 752//49 899//46 359//46
f 399//50 398//47 755//48
f 755//48 924//50 399//50
f 358//49 412//51 753//51
f 753//51 752//49 358//49
f 400//52 399//50 924//50
f 924//50 922//52 400//52
f 412//51 357//53 754//54
f 754//54 753//51 412//51
f 401//55 400//52 922//52
f 922//52 921//55 401//55
f 357//53 403//56 919//56
f 919//56 754//54 357//53
f 402//57 401//55 921//55
f 921//55 920//57 402//57
f 403//56 402//57 920//57
f 920//57 919//56 403//56
f 379//58 378//59 833//59
f 833//59 832//58 379//58
f 378//59 377//60 834//61
f 834//61 833//59 378//59
f 380//62 379//58 832//58
f 832//58 854//63 380//62
f 377//60 376//64 835//64
f 835//64 834//61 377//60
f 413//65 380//62 854//63
f 854//63 853//65 413//65
f 376//64 441//66 889//67
f 889//67 835//64 376//64
f 430//68 413//65 853//65
f 853//65 852//68 430//68
f 441//66 452//69 836//70
f 836//70 889//67 441//66
f 442//71 430//68 852//68
f 852//68 884//72 442//71
f 452//69 463//73 837//73
f 837//73 836//70 452//69
f 384//74 442//71 884//72
f 884//72 851//75 384//74
f 463//73 375//76 838//77
f 838//77 837//73 463//73
f 385//78 384//74 851//75
f 851//75 850//79 385//78
f 375//76 374//80 934//80
f 934//80 838//77 375//76
f 386//81 385//78 850//79
f 850//79 849//82 386//81
f 374//80 373//83 933//84
f 933//84 934//80 374//80
f 387//85 386//81 849//82
f 849//82 898//85 387//85
f 373//83 485//86 932//87
f 932//87 933//84 373//83
f 388//88 387//85 898//85
f 898//85 848//89 388//88
f 485//86 372//90 839//90
f 839//90 932//87 485//86
f 464//91 388//88 848//89
f 848//89 847//91 464//91
f 372//90 371//92 840//93
f 840//93 839//90 372//90
f 389//94 464//91 847//91
f 847//91 846//95 389//94
f 371//92 370//96 841//96
f 841//96 840//93 371//92
f 390//97 389//94 846//95
f 846//95 845//98 390//97
f 370//96 369//99 842//99
f 842//99 841//96 370//96
f 391//100 390//97 845//98
f 845//98 844//101 391//100
f 369//99 368//102 843//103
f 843//103 842//99 369//99
f 431//104 391//100 844//101
f 844//101 928//105 431//104
f 368//102 393//106 930//106
f 930//106 843//103 368//102
f 392//107 431//104 928//105
f 928//105 929//107 392//107
f 393//106 392//107 929//107
f 929//107 930//106 393//106
f 264//108 263//109 780//110
f 780//110 897//108 264//108
f 263//109 491//111 781//111
f 781//111 780//110 263//109
f 265//112 264//108 897//108
f 897//108 779//113 265//112
f 491//111 489//7 782//7
f 782//7 781//111 491//111
f 490//114 265//112 779//113
f 779//113 778//114 490//114
f 489//7 990//115 783//115
f 783//115 782//7 489//7
f 266//116 490//114 778//114
f 778//114 777//117 266//116
f 990//115 262//118 784//119
f 784//119 783//115 990//115
f 267//120 266//116 777//117
f 777//117 776//120 267//120
f 262//118 261//121 785//122
f 785//122 784//119 262//118
f 268//123 267//120 776//120
f 776//120 742//123 268//123
f 261//121 260//124 728//125
f 728//125 785//122 261//121
f 486//126 268//123 742//123
f 742//123 741//126 486//126
f 260//124 259//127 729//128
f 729//128 728//125 260//124
f 269//129 486//126 741//126
f 741//126 740//130 269//129
f 259//127 258//131 730//132
f 730//132 729//128 259//127
f 270//133 269//129 740//130
f 740//130 880//134 270//133
f 258//131 257//135 991//135
f 991//135 730//132 258//131
f 271//136 270//133 880//134
f 880//134 739//137 271//136
f 257//135 256//8 879//8
f 879//8 991//135 257//135
f 457//138 271//136 739//137
f 739//137 738//139 457//138
f 256//8 255//140 890//140
f 890//140 879//8 256//8
f 272//141 457//138 738//139
f 738//139 737//142 272//141
f 255//140 254//143 731//144
f 731//144 890//140 255//140
f 273//145 272//141 737//142
f 737//142 895//145 273//145
f 254//143 253//146 732//146
f 732//146 731//144 254//143
f 274//147 273//145 895//145
f 895//145 736//147 274//147
f 253//146 252//148 733//149
f 733//149 732//146 253//146
f 422//150 274//147 736//147
f 736//147 735//150 422//150
f 252//148 276//151 904//151
f 904//151 733//149 252//148
f 275//152 422//150 735//150
f 735//150 734//153 275//152
f 276//151 275//152 734//153
f 734//153 904//151 276//151
f 250//154 249//155 550//155
f 550//155 650//154 250//154
f 249//155 248//156 551//157
f 551//157 550//155 249//155
f 251//158 250//154 650//154
f 650//154 643//159 251//158
f 248//156 247//160 552//160
f 552//160 551//157 248//156
f 277//161 251//158 643//159
f 549//161 700//161 277//161
f 277//161 643//159 549//161
f 247//160 433//162 698//163
f 698//163 552//160 247//160
f 473//164 277//161 700//161
f 700//161 877//164 473//164
f 433//162 447//165 553//166
f 553//166 698//163 433//162
f 478//167 473//164 877//164
f 877//164 886//168 478//167
f 447//165 456//169 554//169
f 554//169 553//166 447//165
f 278//170 478//167 886//168
f 886//168 870//171 278//170
f 456//169 246//172 555//173
f 555//173 554//169 456//169
f 279//174 278//170 870//171
f 870//171 869//175 279//174
f 246//172 245//176 699//176
f 699//176 555//173 246//172
f 280//177 279//174 869//175
f 869//175 868//177 280//177
f 245//176 244//178 697//179
f 697//179 699//176 245//176
f 281//180 280//177 868//177
f 868//177 885//180 281//180
f 244//178 467//181 696//182
f 696//182 697//179 244//178
f 282//183 281//180 885//180
f 885//180 876//184 282//183
f 467//181 243//185 556//185
f 556//185 696//182 467//181
f 458//186 282//183 876//184
f 876//184 867//186 458//186
f 243//185 242//187 557//188
f 557//188 556//185 243//185
f 283//189 458//186 867//186
f 564//186 563//189 283//189
f 283//189 867//186 564//186
f 242//187 241//190 558//190
f 558//190 557//188 242//187
f 284//191 283//189 563//189
f 563//189 562//192 284//191
f 241//190 421//193 559//193
f 559//193 558//190 241//190
f 285//194 284//191 562//192
f 562//192 561//195 285//194
f 421//193 240//196 560//197
f 560//197 559//193 421//193
f 423//198 285//194 561//195
f 561//195 687//199 423//198
f 240//196 287//200 691//200
f 691//200 560//197 240//196
f 286//201 423//198 687//199
f 687//199 690//201 286//201
f 287//200 286//201 690//201
f 690//201 691//200 287//200
f 220//202 219//203 609//204
f 609//204 652//202 220//202
f 219//203 409//205 610//205
f 610//205 609//204 219//203
f 221//206 220//202 652//202
f 652//202 608//207 221//206
f 409//205 216//208 611//209
f 611//209 610//205 409//205
f 445//210 221//206 608//207
f 608//207 607//210 445//210
f 216//208 215//211 615//211
f 615//211 611//209 216//208
f 222//212 445//210 607//210
f 607//210 606//213 222//212
f 215//211 408//214 616//214
f 616//214 615//211 215//211
f 223//215 222//212 606//213
f 606//213 664//215 223//215
f 408//214 420//73 617//73
f 617//73 616//214 408//214
f 224//216 223//215 664//215
f 664//215 669//216 224//216
f 420//73 214//76 618//77
f 618//77 617//73 420//73
f 225//217 224//216 669//216
f 669//216 674//217 225//217
f 214//76 213//80 675//80
f 675//80 618//77 214//76
f 226//177 225//217 674//217
f 674//217 678//177 226//177
f 213//80 212//218 670//218
f 670//218 675//80 213//80
f 227//219 226//177 678//177
f 678//177 677//219 227//219
f 212//218 211//220 665//220
f 665//220 670//218 212//218
f 228//221 227//219 677//219
f 677//219 605//222 228//221
f 211//220 210//223 662//224
f 662//224 665//220 211//220
f 482//225 228//221 605//222
f 605//222 604//225 482//225
f 210//223 209//226 653//226
f 653//226 662//224 210//223
f 477//189 482//225 604//225
f 604//225 603//189 477//189
f 209//226 208//227 619//228
f 619//228 653//226 209//226
f 472//229 477//189 603//189
f 603//189 602//229 472//229
f 208//227 419//230 620//230
f 620//230 619//228 208//227
f 446//231 472//229 602//229
f 602//229 601//231 446//231
f 419//230 207//232 598//233
f 598//233 620//230 419//230
f 432//234 446//231 601//231
f 601//231 600//234 432//234
f 207//232 230//235 651//235
f 651//235 598//233 207//232
f 229//236 432//234 600//234
f 600//234 599//237 229//236
f 230//235 229//236 599//237
f 599//237 651//235 230//235
f 148//58 55//59 502//59
f 502//59 689//58 148//58
f 55//59 54//60 503//61
f 503//61 502//59 55//59
f 146//62 148//58 689//58
f 689//58 501//63 146//62
f 54//60 53//238 504//238
f 504//238 503//61 54//60
f 145//65 146//62 501//63
f 501//63 500//65 145//65
f 53//238 153//239 682//240
f 682//240 504//238 53//238
f 144//68 145//65 500//65
f 500//65 499//68 144//68
f 153//239 158//241 505//242
f 505//242 682//240 153//239
f 133//71 144//68 499//68
f 499//68 688//72 133//71
f 158//241 160//243 506//243
f 506//243 505//242 158//241
f 56//244 133//71 688//72
f 688//72 498//245 56//244
f 160//243 52//246 507//247
f 507//247 506//243 160//243
f 57//248 56//244 498//245
f 498//245 497//249 57//248
f 52//246 51//250 666//250
f 666//250 507//247 52//246
f 58//251 57//248 497//249
f 497//249 496//252 183//252
f 183//252 58//251 497//249
f 51//250 50//253 658//254
f 658//254 666//250 51//250
f 184//180 183//252 496//252
f 496//252 681//180 184//180
f 50//253 140//255 655//256
f 655//256 658//254 50//253
f 185//183 184//180 681//180
f 681//180 495//184 185//183
f 140//255 49//257 508//257
f 508//257 655//256 140//255
f 466//186 185//183 495//184
f 495//184 494//186 466//186
f 49//257 48//92 509//93
f 509//93 508//257 49//257
f 186//258 466//186 494//186
f 494//186 493//258 186//258
f 48//92 47//96 510//96
f 510//96 509//93 48//92
f 187//259 186//258 493//258
f 493//258 639//260 187//259
f 47//96 126//99 511//99
f 511//99 510//96 47//96
f 188//261 187//259 639//260
f 639//260 638//262 188//261
f 43//99 191//102 512//263
f 512//263 511//99 126//99
f 126//99 43//99 512//263
f 415//104 188//261 638//262
f 638//262 657//105 415//104
f 191//102 190//106 646//106
f 646//106 512//263 191//102
f 189//107 415//104 657//105
f 657//105 654//107 189//107
f 190//106 189//107 654//107
f 654//107 646//106 190//106
f 340//58 339//59 723//59
f 723//59 914//58 340//58
f 339//59 338//60 724//61
f 724//61 723//59 339//59
f 341//62 340//58 914//58
f 914//58 722//63 341//62
f 338//60 337//64 725//64
f 725//64 724//61 338//60
f 411//65 341//62 722//63
f 722//63 721//65 411//65
f 337//64 437//66 903//67
f 903//67 725//64 337//64
f 427//68 411//65 721//65
f 721//65 720//68 427//68
f 437//66 450//69 726//70
f 726//70 903//67 437//66
f 438//71 427//68 720//68
f 720//68 992//72 438//71
f 450//69 461//73 727//73
f 727//73 726//70 450//69
f 345//244 438//71 992//72
f 992//72 719//245 345//244
f 461//73 336//76 705//77
f 705//77 727//73 461//73
f 346//248 345//244 719//245
f 719//245 718//264 346//248
f 336//76 335//80 706//80
f 706//80 705//77 336//76
f 347//252 346//248 718//264
f 718//264 717//252 347//252
f 335//80 334//83 871//84
f 871//84 706//80 335//80
f 348//180 347//252 717//252
f 717//252 918//180 348//180
f 334//83 436//86 878//87
f 878//87 871//84 334//83
f 349//183 348//180 918//180
f 918//180 716//184 349//183
f 436//86 333//90 707//90
f 707//90 878//87 436//86
f 469//186 349//183 716//184
f 716//184 715//186 469//186
f 333//90 332//92 708//93
f 708//93 707//90 333//90
f 350//258 469//186 715//186
f 715//186 714//258 350//258
f 332//92 331//96 709//96
f 709//96 708//93 332//92
f 351//259 350//258 714//258
f 714//258 713//260 351//259
f 331//96 330//99 710//99
f 710//99 709//96 331//96
f 352//261 351//259 713//260
f 713//260 712//262 352//261
f 330//99 329//102 711//103
f 711//103 710//99 330//99
f 428//104 352//261 712//262
f 712//262 911//105 428//104
f 329//102 354//106 905//106
f 905//106 711//103 329//102
f 353//107 428//104 911//105
f 911//105 908//107 353//107
f 354//106 353//107 908//107
f 908//107 905//106 354//106
f 111//265 110//155 823//266
f 823//266 894//265 111//265
f 110//155 109//267 824//267
f 824//267 823//266 110//155
f 112//268 111//265 894//265
f 894//265 822//269 112//268
f 109//267 108//270 825//270
f 825//270 824//267 109//267
f 113//271 112//268 822//269
f 822//269 821//271 113//271
f 108//270 107//272 826//272
f 826//272 825//270 108//270
f 114//273 113//271 821//271
f 821//271 820//274 114//273
f 107//272 106//275 827//275
f 827//275 826//272 107//272
f 115//276 114//273 820//274
f 820//274 910//276 115//276
f 106//275 105//73 828//73
f 828//73 827//275 106//275
f 116//276 115//276 910//276
f 910//276 913//277 173//277
f 173//277 116//276 910//276
f 105//73 104//76 809//77
f 809//77 828//73 105//73
f 174//251 173//277 913//277
f 913//277 915//251 174//251
f 104//76 149//80 875//80
f 875//80 809//77 104//76
f 175//252 174//251 915//251
f 915//251 916//252 175//252
f 149//80 103//278 883//278
f 883//278 875//80 149//80
f 176//180 175//252 916//252
f 916//252 917//180 176//180
f 103//278 102//279 888//279
f 888//279 883//278 103//278
f 177//183 176//180 917//180
f 917//180 819//184 177//183
f 102//279 101//280 893//280
f 893//280 888//279 102//279
f 488//186 177//183 819//184
f 819//184 818//186 488//186
f 101//280 129//281 902//281
f 902//281 893//280 101//280
f 476//258 488//186 818//186
f 818//186 817//258 476//258
f 100//281 181//282 810//228
f 810//228 902//281 129//281
f 129//281 100//281 810//228
f 471//283 476//258 817//258
f 817//258 816//283 471//283
f 181//282 405//284 811//284
f 811//284 810//228 181//282
f 454//285 471//283 816//283
f 816//283 815//285 454//285
f 405//284 180//286 812//287
f 812//287 811//284 405//284
f 443//288 454//285 815//285
f 815//285 814//288 443//288
f 180//286 179//289 909//289
f 909//289 812//287 180//286
f 178//290 443//288 814//288
f 814//288 813//291 178//290
f 179//289 178//290 813//291
f 813//291 909//289 179//289
f 318//265 317//15 576//15
f 576//15 692//265 318//265
f 317//15 459//292 577//292
f 577//292 576//15 317//15
f 319//268 318//265 692//265
f 692//265 575//269 319//268
f 459//292 448//293 578//293
f 578//293 577//292 459//292
f 479//271 319//268 575//269
f 575//269 574//271 479//271
f 448//293 434//211 579//211
f 579//211 578//293 448//293
f 320//273 479//271 574//271
f 574//271 573//274 320//273
f 434//211 425//214 580//214
f 580//214 579//211 434//211
f 321//276 320//273 573//274
f 573//274 694//276 321//276
f 425//214 410//73 581//73
f 581//73 580//214 425//214
f 322//277 321//276 694//276
f 694//276 680//277 322//277
f 410//73 300//76 582//77
f 582//77 581//73 410//73
f 323//251 322//277 680//277
f 680//277 676//251 323//251
f 300//76 299//80 673//80
f 673//80 582//77 300//76
f 324//252 323//251 676//251
f 676//251 672//252 324//252
f 299//80 298//218 668//218
f 668//218 673//80 299//80
f 325//180 324//252 672//252
f 672//252 667//180 325//180
f 298//218 297//220 663//220
f 663//220 668//218 298//218
f 326//183 325//180 667//180
f 667//180 572//184 326//183
f 297//220 296//294 661//294
f 661//294 663//220 297//220
f 468//186 326//183 572//184
f 572//184 571//186 468//186
f 296//294 295//295 656//295
f 656//295 661//294 296//294
f 460//258 468//186 571//186
f 571//186 570//258 460//258
f 295//295 294//49 583//49
f 583//49 656//295 295//295
f 449//283 460//258 570//258
f 570//258 569//283 449//283
f 294//49 424//284 584//284
f 584//284 583//49 294//49
f 435//285 449//283 569//283
f 569//283 568//285 435//285
f 424//284 293//286 565//287
f 565//287 584//284 424//284
f 426//288 435//285 568//285
f 568//285 567//288 426//288
f 293//286 328//289 644//289
f 644//289 565//287 293//286
f 327//290 426//288 567//288
f 567//288 566//291 327//290
f 328//289 327//290 566//291
f 566//291 644//289 328//289
f 993//1 993//1 993//1
f 993//1 993//1 993//1
f 993//1 993//1 993//1
f 993//1 993//1 993//1
f 993//1 993//1 993//1
f 993//1 993//1 993//1
f 993//1 993//1 993//1
f 993//1 993//1 993//1
f 993//1 993//1 993//1
f 993//1 993//1 993//1
f 993//1 993//1 993//1
f 993//1 993//1 993//1
f 993//1 993//1 993//1
f 993//1 993//1 993//1
f 993//1 993//1 993//1
f 993//1 993//1 993//1
f 993//1 993//1 993//1
f 993//1 993//1 993//1
f 993//1 993//1 993//1
f 993//1 993//1 993//1
f 993//1 993//1 993//1
f 993//1 993//1 993//1
f 993//1 993//1 993//1
f 993//1 993//1 993//1
f 993//1 993//1 993//1
f 993//1 993//1 993//1
f 993//1 993//1 993//1
f 993//1 993//1 993//1
f 993//1 993//1 993//1
f 993//1 993//1 993//1
f 993//1 993//1 993//1
f 993//1 993//1 993//1
f 993//1 993//1 993//1
f 993//1 993//1 993//1
f 993//1 993//1 993//1
f 993//1 993//1 993//1
f 993//1 993//1 993//1
f 993//1 993//1 993//1
f 993//1 993//1 993//1
f 993//1 993//1 993//1
f 993//1 993//1 993//1
f 993//1 993//1 993//1
f 993//1 993//1 993//1
f 993//1 993//1 993//1
f 993//1 993//1 993//1
f 993//1 993//1 993//1
f 993//1 993//1 993//1
f 993//1 993//1 993//1
f 993//1 993//1 993//1
f 993//1 993//1 993//1
f 993//1 993//1 993//1
f 993//1 993//1 993//1
f 993//1 993//1 993//1
f 993//1 993//1 993//1
f 993//1 993//1 993//1
f 993//1 993//1 993//1
f 993//1 993//1 993//1
f 993//1 993//1 993//1
f 993//1 993//1 993//1
f 993//1 993//1 993//1
f 993//1 993//1 993//1
f 993//1 993//1 993//1
f 993//1 993//1 993//1
f 993//1 993//1 993//1
f 993//1 993//1 993//1
f 993//1 993//1 993//1
f 993//1 993//1 993//1
f 993//1 993//1 993//1
f 993//1 993//1 993//1
f 993//1 993//1 993//1
f 993//1 993//1 993//1
f 993//1 993//1 993//1
f 993//1 993//1 993//1
f 993//1 993//1 993//1
f 993//1 993//1 993//1
f 993//1 993//1 993//1
f 993//1 993//1 993//1
f 993//1 993//1 993//1
f 993//1 993//1 993//1
f 993//1 993//1 993//1
f 993//1 993//1 993//1
f 993//1 993//1 993//1
f 993//1 993//1 993//1
f 993//1 993//1 993//1
f 993//1 993//1 993//1
f 993//1 993//1 993//1
f 993//1 993//1 993//1
f 993//1 993//1 993//1
f 993//1 993//1 993//1
f 993//1 993//1 993//1
f 993//1 993//1 993//1
f 993//1 993//1 993//1
f 993//1 993//1 993//1
f 993//1 993//1 993//1
f 993//1 993//1 993//1
f 993//1 993//1 993//1
f 993//1 993//1 993//1
f 993//1 993//1 993//1
f 993//1 993//1 993//1
f 993//1 993//1 993//1
f 993//1 993//1 993//1
f 993//1 993//1 993//1
f 993//1 993//1 993//1
f 993//1 993//1 993//1
f 993//1 993//1 993//1
f 993//1 993//1 993//1
f 993//1 993//1 993//1
f 993//1 993//1 993//1
f 993//1 993//1 993//1
f 993//1 993//1 993//1
f 993//1 993//1 993//1
f 993//1 993//1 993//1
f 993//1 993//1 993//1
f 993//1 993//1 993//1
f 993//1 993//1 993//1
f 993//1 993//1 993//1
f 993//1 993//1 993//1
f 993//1 993//1 993//1
f 993//1 993//1 993//1
f 993//1 993//1 993//1
f 993//1 993//1 993//1
f 993//1 993//1 993//1
f 993//1 993//1 993//1
f 993//1 993//1 993//1
f 993//1 993//1 993//1
f 993//1 993//1 993//1
f 993//1 993//1 993//1
f 993//1 993//1 993//1
f 993//1 993//1 993//1
# Vertices: 993, normals: 295, texture coordinates: 0, faces: 2172

